<svg width="135" height="24" viewBox="0 0 135 24" fill="none" xmlns="http://www.w3.org/2000/svg">
<path d="M0.968 18.5C0.792 18.5 0.64 18.436 0.512 18.308C0.384 18.18 0.32 18.028 0.32 17.852V2.348C0.32 2.172 0.384 2.02 0.512 1.892C0.64 1.764 0.792 1.7 0.968 1.7H5.864C6.04 1.7 6.192 1.764 6.32 1.892C6.448 2.02 6.512 2.172 6.512 2.348V17.852C6.512 18.028 6.448 18.18 6.32 18.308C6.192 18.436 6.04 18.5 5.864 18.5H0.968ZM3.44 2.348C3.28 2.332 3.16 2.348 3.08 2.396C3.016 2.444 2.952 2.54 2.888 2.684C2.824 2.828 2.808 2.932 2.84 2.996C2.888 3.06 2.976 3.14 3.104 3.236C3.232 3.348 3.328 3.444 3.392 3.524C3.472 3.588 3.584 3.572 3.728 3.476C3.888 3.38 3.96 3.284 3.944 3.188C3.928 3.092 3.896 2.964 3.848 2.804C3.816 2.644 3.776 2.532 3.728 2.468C3.68 2.404 3.584 2.364 3.44 2.348ZM1.76 2.708L1.544 2.732L1.592 2.972H1.808L1.76 2.708ZM2.528 3.884L2.264 3.812L2.216 4.148L2.504 4.316L2.72 4.076L2.528 3.884ZM4.04 4.22C4.008 4.156 3.984 4.108 3.968 4.076C3.952 4.028 3.904 4.004 3.824 4.004C3.68 4.02 3.592 4.108 3.56 4.268C3.544 4.332 3.552 4.38 3.584 4.412C3.632 4.428 3.688 4.452 3.752 4.484C3.816 4.516 3.864 4.548 3.896 4.58C3.944 4.596 3.992 4.58 4.04 4.532C4.104 4.484 4.128 4.444 4.112 4.412C4.096 4.364 4.072 4.3 4.04 4.22ZM1.712 4.532L1.592 4.388L1.352 4.436L1.472 4.628L1.664 4.772L1.712 4.532ZM5.744 5.012L5.504 5.06L5.576 5.324L5.84 5.396L5.936 5.156L5.744 5.012ZM1.76 5.636L1.616 5.54L1.4 5.612L1.472 5.876H1.76V5.636ZM3.848 6.068C3.736 5.972 3.608 5.972 3.464 6.068C3.384 6.116 3.32 6.164 3.272 6.212C3.24 6.26 3.232 6.332 3.248 6.428C3.312 6.62 3.432 6.724 3.608 6.74C3.72 6.74 3.792 6.724 3.824 6.692C3.856 6.644 3.896 6.564 3.944 6.452C4.008 6.308 3.976 6.18 3.848 6.068ZM2.24 6.236L2.048 6.068L1.928 6.284V6.476H2.168L2.24 6.236ZM5.624 6.98L5.336 7.076L5.456 7.316L5.648 7.364L5.816 7.196L5.624 6.98ZM1.544 7.628L1.256 7.436L1.016 7.628L1.136 7.892L1.4 7.916L1.544 7.628ZM4.904 7.892C4.888 7.748 4.84 7.66 4.76 7.628C4.696 7.596 4.592 7.564 4.448 7.532C4.336 7.516 4.256 7.532 4.208 7.58C4.176 7.628 4.136 7.7 4.088 7.796C4.04 7.892 4.008 7.972 3.992 8.036C3.992 8.084 4.024 8.148 4.088 8.228C4.184 8.324 4.256 8.388 4.304 8.42C4.368 8.452 4.456 8.436 4.568 8.372C4.696 8.308 4.784 8.252 4.832 8.204C4.896 8.14 4.92 8.036 4.904 7.892ZM2.984 8.324C2.744 8.26 2.56 8.26 2.432 8.324C2.32 8.388 2.192 8.524 2.048 8.732C1.936 8.924 1.904 9.076 1.952 9.188C2.016 9.3 2.12 9.436 2.264 9.596C2.408 9.772 2.528 9.892 2.624 9.956C2.72 10.02 2.864 10.012 3.056 9.932C3.312 9.82 3.504 9.724 3.632 9.644C3.776 9.564 3.84 9.388 3.824 9.116C3.808 8.828 3.728 8.644 3.584 8.564C3.456 8.468 3.256 8.388 2.984 8.324ZM5.144 8.9L4.976 8.924L4.856 9.116L5.096 9.212L5.312 9.068L5.144 8.9ZM1.904 11.06C1.76 11.044 1.68 11.084 1.664 11.18C1.648 11.26 1.616 11.364 1.568 11.492C1.52 11.62 1.472 11.724 1.424 11.804C1.392 11.868 1.424 11.94 1.52 12.02C1.616 12.1 1.696 12.116 1.76 12.068C1.824 12.004 1.912 11.94 2.024 11.876C2.136 11.812 2.232 11.764 2.312 11.732C2.392 11.7 2.416 11.612 2.384 11.468C2.352 11.324 2.304 11.228 2.24 11.18C2.176 11.116 2.064 11.076 1.904 11.06ZM3.512 11.252L3.272 11.3L3.392 11.54L3.656 11.612L3.728 11.348L3.512 11.252ZM5.744 12.476L5.576 12.356L5.504 12.548L5.6 12.764L5.768 12.62L5.744 12.476ZM3.608 12.74C3.496 12.628 3.36 12.612 3.2 12.692C3.04 12.772 2.976 12.9 3.008 13.076C3.04 13.252 3.144 13.356 3.32 13.388C3.448 13.404 3.544 13.412 3.608 13.412C3.672 13.396 3.736 13.332 3.8 13.22C3.848 13.108 3.848 13.028 3.8 12.98C3.768 12.916 3.704 12.836 3.608 12.74ZM5.384 13.58C5.176 13.436 4.976 13.436 4.784 13.58C4.672 13.66 4.608 13.74 4.592 13.82C4.592 13.884 4.616 13.98 4.664 14.108C4.712 14.268 4.752 14.396 4.784 14.492C4.816 14.572 4.912 14.612 5.072 14.612C5.248 14.612 5.376 14.588 5.456 14.54C5.552 14.492 5.632 14.38 5.696 14.204C5.744 14.044 5.736 13.932 5.672 13.868C5.608 13.788 5.512 13.692 5.384 13.58ZM2.072 13.628C1.944 13.58 1.84 13.572 1.76 13.604C1.696 13.62 1.624 13.684 1.544 13.796C1.48 13.908 1.464 13.996 1.496 14.06C1.528 14.108 1.584 14.18 1.664 14.276C1.76 14.388 1.832 14.484 1.88 14.564C1.928 14.628 2.016 14.628 2.144 14.564C2.304 14.516 2.4 14.46 2.432 14.396C2.48 14.316 2.504 14.196 2.504 14.036C2.488 13.876 2.448 13.78 2.384 13.748C2.32 13.7 2.216 13.66 2.072 13.628ZM3.704 14.852L3.536 14.78L3.416 14.972L3.56 15.164L3.8 15.044L3.704 14.852ZM2.888 15.308L2.696 15.164L2.48 15.308L2.552 15.596L2.792 15.524L2.888 15.308ZM1.88 15.812C1.88 15.668 1.864 15.564 1.832 15.5C1.8 15.42 1.712 15.356 1.568 15.308C1.456 15.276 1.384 15.3 1.352 15.38C1.32 15.444 1.264 15.532 1.184 15.644C1.104 15.756 1.104 15.868 1.184 15.98C1.264 16.076 1.32 16.148 1.352 16.196C1.384 16.244 1.456 16.252 1.568 16.22C1.696 16.172 1.776 16.124 1.808 16.076C1.856 16.028 1.88 15.94 1.88 15.812ZM5.144 15.38C5.048 15.364 4.976 15.42 4.928 15.548C4.88 15.66 4.888 15.748 4.952 15.812C5.016 15.876 5.104 15.876 5.216 15.812C5.28 15.78 5.328 15.756 5.36 15.74C5.408 15.708 5.424 15.66 5.408 15.596C5.376 15.468 5.288 15.396 5.144 15.38ZM3.536 16.172L3.392 15.98L3.152 16.124L3.224 16.388L3.464 16.364L3.536 16.172ZM3.728 17.324C3.712 17.212 3.688 17.132 3.656 17.084C3.64 17.02 3.576 16.972 3.464 16.94C3.336 16.924 3.24 16.924 3.176 16.94C3.112 16.956 3.048 17.02 2.984 17.132C2.92 17.244 2.92 17.324 2.984 17.372C3.048 17.404 3.12 17.46 3.2 17.54C3.248 17.604 3.288 17.652 3.32 17.684C3.368 17.716 3.432 17.716 3.512 17.684C3.672 17.604 3.744 17.484 3.728 17.324ZM5.768 17.18C5.72 17.068 5.656 17.02 5.576 17.036C5.496 17.052 5.392 17.068 5.264 17.084C5.152 17.1 5.064 17.116 5 17.132C4.952 17.148 4.912 17.212 4.88 17.324C4.864 17.468 4.856 17.58 4.856 17.66C4.856 17.74 4.92 17.812 5.048 17.876C5.16 17.94 5.24 17.94 5.288 17.876C5.336 17.796 5.408 17.708 5.504 17.612C5.6 17.516 5.68 17.452 5.744 17.42C5.808 17.372 5.816 17.292 5.768 17.18ZM9.56394 18.5C9.38794 18.5 9.23594 18.436 9.10794 18.308C8.97994 18.18 8.91594 18.028 8.91594 17.852V6.668C8.91594 6.492 8.97994 6.34 9.10794 6.212C9.23594 6.084 9.38794 6.02 9.56394 6.02H13.7639C13.9399 6.02 14.0919 6.084 14.2199 6.212C14.3479 6.34 14.4119 6.492 14.4119 6.668V7.46C14.8119 6.996 15.3639 6.604 16.0679 6.284C16.7719 5.948 17.5479 5.78 18.3959 5.78C19.2119 5.78 19.9719 5.972 20.6759 6.356C21.3799 6.74 21.9479 7.332 22.3799 8.132C22.8279 8.932 23.0519 9.964 23.0519 11.228V17.852C23.0519 18.028 22.9879 18.18 22.8599 18.308C22.7319 18.436 22.5799 18.5 22.4039 18.5H17.8199C17.6439 18.5 17.4919 18.436 17.3639 18.308C17.2359 18.18 17.1719 18.028 17.1719 17.852V11.396C17.1719 10.516 16.7719 10.076 15.9719 10.076C15.1719 10.076 14.7719 10.516 14.7719 11.396V17.852C14.7719 18.028 14.7079 18.18 14.5799 18.308C14.4519 18.436 14.2999 18.5 14.1239 18.5H9.56394ZM10.8599 6.452C10.7159 6.436 10.6039 6.444 10.5239 6.476C10.4599 6.492 10.3959 6.564 10.3319 6.692C10.2679 6.82 10.2439 6.924 10.2599 7.004C10.2919 7.068 10.3639 7.148 10.4759 7.244C10.5719 7.356 10.6519 7.428 10.7159 7.46C10.7959 7.492 10.8999 7.476 11.0279 7.412C11.1719 7.332 11.2599 7.26 11.2919 7.196C11.3239 7.116 11.3319 7.004 11.3159 6.86C11.2839 6.7 11.2359 6.604 11.1719 6.572C11.1079 6.524 11.0039 6.484 10.8599 6.452ZM12.1799 7.076L11.9399 6.956L11.7479 7.076L11.7239 7.388H12.0599L12.1799 7.076ZM13.0679 8.444L12.8759 8.3L12.6599 8.42L12.7559 8.636L13.0199 8.708L13.0679 8.444ZM14.1719 8.612L13.9079 8.444L13.7399 8.708L13.8599 8.924H14.1479L14.1719 8.612ZM11.0999 8.612C11.0519 8.548 11.0039 8.516 10.9559 8.516C10.9239 8.5 10.8599 8.5 10.7639 8.516C10.6199 8.548 10.5399 8.612 10.5239 8.708C10.5079 8.836 10.5639 8.932 10.6919 8.996C10.7879 9.044 10.8839 9.02 10.9799 8.924C11.0439 8.86 11.0839 8.812 11.0999 8.78C11.1319 8.748 11.1319 8.692 11.0999 8.612ZM17.1719 8.564C17.0599 8.516 16.9639 8.492 16.8839 8.492C16.8199 8.492 16.7559 8.54 16.6919 8.636C16.6119 8.764 16.5639 8.868 16.5479 8.948C16.5319 9.012 16.5719 9.108 16.6679 9.236C16.7479 9.332 16.8199 9.372 16.8839 9.356C16.9639 9.324 17.0679 9.284 17.1959 9.236C17.3719 9.172 17.4599 9.052 17.4599 8.876C17.4599 8.716 17.3639 8.612 17.1719 8.564ZM15.2759 8.684C15.1319 8.636 15.0199 8.612 14.9399 8.612C14.8599 8.596 14.7719 8.652 14.6759 8.78C14.5799 8.892 14.5479 8.988 14.5799 9.068C14.6119 9.132 14.6679 9.228 14.7479 9.356C14.8119 9.468 14.8759 9.54 14.9399 9.572C15.0039 9.588 15.0999 9.58 15.2279 9.548C15.3559 9.516 15.4439 9.476 15.4919 9.428C15.5559 9.38 15.5879 9.284 15.5879 9.14C15.5879 8.996 15.5639 8.9 15.5159 8.852C15.4839 8.788 15.4039 8.732 15.2759 8.684ZM20.3639 9.26C20.2039 9.132 20.0759 9.036 19.9799 8.972C19.8839 8.908 19.7479 8.924 19.5719 9.02C19.3799 9.132 19.2919 9.244 19.3079 9.356C19.3239 9.468 19.3559 9.628 19.4039 9.836C19.4359 10.044 19.4679 10.212 19.4999 10.34C19.5319 10.468 19.6519 10.548 19.8599 10.58C20.0839 10.596 20.2279 10.556 20.2919 10.46C20.3719 10.348 20.4599 10.188 20.5559 9.98C20.6199 9.804 20.6359 9.676 20.6039 9.596C20.5719 9.5 20.4919 9.388 20.3639 9.26ZM13.4759 9.476C13.3959 9.348 13.3239 9.244 13.2599 9.164C13.2119 9.068 13.1079 9.044 12.9479 9.092C12.7879 9.124 12.6999 9.188 12.6839 9.284C12.6679 9.38 12.6519 9.516 12.6359 9.692C12.6199 9.916 12.7239 10.076 12.9479 10.172C13.0599 10.204 13.1399 10.196 13.1879 10.148C13.2359 10.1 13.2999 10.028 13.3799 9.932C13.4439 9.852 13.4919 9.788 13.5239 9.74C13.5559 9.676 13.5399 9.588 13.4759 9.476ZM10.8839 9.932C10.6919 9.884 10.5479 9.94 10.4519 10.1C10.3719 10.228 10.3159 10.332 10.2839 10.412C10.2519 10.476 10.2759 10.564 10.3559 10.676C10.4519 10.788 10.5399 10.828 10.6199 10.796C10.6999 10.764 10.8039 10.724 10.9319 10.676C11.0279 10.628 11.0839 10.58 11.0999 10.532C11.1159 10.484 11.1239 10.404 11.1239 10.292C11.1239 10.18 11.1079 10.1 11.0759 10.052C11.0439 10.004 10.9799 9.964 10.8839 9.932ZM22.2599 11.012L22.1159 10.94L21.8999 11.036L22.0199 11.252H22.2599V11.012ZM9.85194 11.3L9.65994 11.132L9.49194 11.324L9.58794 11.492L9.80394 11.54L9.85194 11.3ZM13.6919 11.708C13.6599 11.532 13.5639 11.428 13.4039 11.396C13.2279 11.364 13.0999 11.428 13.0199 11.588C12.9399 11.748 12.9559 11.884 13.0679 11.996C13.1479 12.076 13.2119 12.116 13.2599 12.116C13.3079 12.1 13.3799 12.076 13.4759 12.044C13.5559 11.996 13.6119 11.956 13.6439 11.924C13.6919 11.876 13.7079 11.804 13.6919 11.708ZM12.3719 12.404C12.2119 12.18 12.0679 12.036 11.9399 11.972C11.8119 11.908 11.6119 11.916 11.3399 11.996C11.0839 12.06 10.9479 12.164 10.9319 12.308C10.9159 12.452 10.8999 12.652 10.8839 12.908C10.8679 13.164 10.8679 13.364 10.8839 13.508C10.8999 13.652 11.0279 13.772 11.2679 13.868C11.4919 13.948 11.6439 13.924 11.7239 13.796C11.8199 13.668 11.9399 13.508 12.0839 13.316C12.2439 13.124 12.3639 12.98 12.4439 12.884C12.5399 12.772 12.5159 12.612 12.3719 12.404ZM20.3639 12.428C20.0759 12.204 19.8359 12.06 19.6439 11.996C19.4519 11.932 19.2119 12.012 18.9239 12.236C18.5719 12.492 18.3159 12.716 18.1559 12.908C18.0119 13.1 18.0039 13.404 18.1319 13.82C18.2759 14.252 18.4599 14.516 18.6839 14.612C18.9079 14.708 19.2519 14.756 19.7159 14.756C20.0999 14.756 20.3479 14.668 20.4599 14.492C20.5719 14.316 20.6919 14.044 20.8199 13.676C20.9159 13.356 20.9319 13.116 20.8679 12.956C20.8039 12.796 20.6359 12.62 20.3639 12.428ZM13.6439 13.988C13.5319 13.972 13.4519 14.012 13.4039 14.108C13.3559 14.188 13.3079 14.252 13.2599 14.3C13.2279 14.348 13.2439 14.404 13.3079 14.468C13.4359 14.596 13.5879 14.612 13.7639 14.516C13.8439 14.484 13.8839 14.444 13.8839 14.396C13.8839 14.332 13.8759 14.252 13.8599 14.156C13.8439 14.076 13.7719 14.02 13.6439 13.988ZM22.5959 14.804L22.2839 14.732L22.1639 14.972L22.2359 15.188L22.4519 15.068L22.5959 14.804ZM13.6919 15.164L13.4039 15.092V15.38L13.5719 15.524L13.7639 15.38L13.6919 15.164ZM11.0039 15.38L10.7879 15.26L10.6679 15.476L10.8119 15.62H11.0759L11.0039 15.38ZM20.0039 15.86L19.8599 15.668L19.6679 15.86L19.7879 16.028L19.9319 16.004L20.0039 15.86ZM11.3879 16.364C11.2759 16.268 11.1799 16.204 11.0999 16.172C11.0359 16.14 10.9399 16.156 10.8119 16.22C10.6839 16.3 10.6199 16.38 10.6199 16.46C10.6199 16.54 10.6359 16.652 10.6679 16.796C10.7159 16.94 10.7559 17.052 10.7879 17.132C10.8199 17.196 10.9079 17.236 11.0519 17.252C11.2119 17.268 11.3239 17.252 11.3879 17.204C11.4679 17.156 11.5399 17.06 11.6039 16.916C11.6679 16.788 11.6759 16.692 11.6279 16.628C11.5799 16.548 11.4999 16.46 11.3879 16.364ZM13.8359 16.628C13.6759 16.484 13.5079 16.46 13.3319 16.556C13.1879 16.652 13.0679 16.724 12.9719 16.772C12.8919 16.82 12.8759 16.924 12.9239 17.084C12.9559 17.276 13.0039 17.42 13.0679 17.516C13.1319 17.596 13.2679 17.644 13.4759 17.66C13.6519 17.676 13.7639 17.636 13.8119 17.54C13.8599 17.444 13.9159 17.308 13.9799 17.132C14.0439 17.004 14.0599 16.908 14.0279 16.844C13.9959 16.78 13.9319 16.708 13.8359 16.628ZM19.2119 16.844C19.0679 16.78 18.9559 16.804 18.8759 16.916C18.7959 17.012 18.8039 17.124 18.8999 17.252C18.9959 17.396 19.0999 17.444 19.2119 17.396C19.3239 17.364 19.3799 17.268 19.3799 17.108C19.3799 16.964 19.3239 16.876 19.2119 16.844ZM22.3319 17.012C22.2359 16.916 22.1479 16.884 22.0679 16.916C21.9879 16.964 21.9239 17.004 21.8759 17.036C21.8279 17.068 21.8119 17.132 21.8279 17.228C21.8439 17.308 21.8759 17.356 21.9239 17.372C21.9879 17.388 22.0599 17.404 22.1399 17.42C22.2999 17.436 22.4119 17.396 22.4759 17.3C22.5079 17.22 22.5079 17.164 22.4759 17.132C22.4439 17.1 22.3959 17.06 22.3319 17.012ZM10.2119 17.204L9.89994 17.18L9.68394 17.372L9.82794 17.684L10.1639 17.54L10.2119 17.204ZM32.7221 18.5C31.5701 18.5 30.5381 18.348 29.6261 18.044C28.7301 17.724 28.0181 17.188 27.4901 16.436C26.9781 15.684 26.7221 14.652 26.7221 13.34V10.22H24.8261C24.6501 10.22 24.4981 10.156 24.3701 10.028C24.2421 9.9 24.1781 9.748 24.1781 9.572V6.668C24.1781 6.492 24.2421 6.34 24.3701 6.212C24.4981 6.084 24.6501 6.02 24.8261 6.02H26.7221V2.108C26.7221 1.932 26.7861 1.78 26.9141 1.652C27.0421 1.524 27.1941 1.46 27.3701 1.46H31.5701C31.7461 1.46 31.8981 1.524 32.0261 1.652C32.1541 1.78 32.2181 1.932 32.2181 2.108V6.02H35.2421C35.4181 6.02 35.5701 6.084 35.6981 6.212C35.8261 6.34 35.8901 6.492 35.8901 6.668V9.572C35.8901 9.748 35.8261 9.9 35.6981 10.028C35.5701 10.156 35.4181 10.22 35.2421 10.22H32.2181V12.86C32.2181 13.228 32.2981 13.524 32.4581 13.748C32.6341 13.956 32.8981 14.06 33.2501 14.06H35.4341C35.6101 14.06 35.7621 14.124 35.8901 14.252C36.0181 14.38 36.0821 14.532 36.0821 14.708V17.852C36.0821 18.028 36.0181 18.18 35.8901 18.308C35.7621 18.436 35.6101 18.5 35.4341 18.5H32.7221ZM30.6341 2.156C30.4901 2.06 30.3701 2.028 30.2741 2.06C30.1941 2.092 30.0981 2.156 29.9861 2.252C29.8581 2.364 29.7701 2.46 29.7221 2.54C29.6901 2.62 29.7061 2.74 29.7701 2.9C29.8341 3.06 29.9061 3.156 29.9861 3.188C30.0661 3.22 30.1941 3.228 30.3701 3.212C30.5301 3.196 30.6341 3.164 30.6821 3.116C30.7461 3.052 30.7941 2.94 30.8261 2.78C30.8741 2.62 30.8901 2.5 30.8741 2.42C30.8581 2.324 30.7781 2.236 30.6341 2.156ZM29.0741 3.044L28.8341 2.828L28.5461 2.876L28.6421 3.14L28.8821 3.308L29.0741 3.044ZM30.5861 3.812L30.5141 3.62L30.3701 3.74L30.2981 3.956L30.5381 3.98L30.5861 3.812ZM28.6181 4.244C28.5861 4.116 28.4981 4.044 28.3541 4.028C28.2741 4.012 28.2101 4.012 28.1621 4.028C28.1141 4.028 28.0661 4.068 28.0181 4.148C27.9541 4.292 27.9781 4.42 28.0901 4.532C28.1541 4.596 28.2101 4.62 28.2581 4.604C28.3061 4.572 28.3701 4.54 28.4501 4.508C28.5781 4.428 28.6341 4.34 28.6181 4.244ZM29.4341 5.732C29.0501 5.54 28.7381 5.396 28.4981 5.3C28.2741 5.188 28.0101 5.292 27.7061 5.612C27.4021 5.916 27.2981 6.188 27.3941 6.428C27.5061 6.652 27.6661 6.956 27.8741 7.34C28.0661 7.708 28.2341 7.972 28.3781 8.132C28.5221 8.276 28.7941 8.316 29.1941 8.252C29.5941 8.188 29.8501 8.06 29.9621 7.868C30.0741 7.676 30.1541 7.38 30.2021 6.98C30.2661 6.612 30.2341 6.356 30.1061 6.212C29.9941 6.052 29.7701 5.892 29.4341 5.732ZM26.2901 7.292C26.2741 7.18 26.2341 7.116 26.1701 7.1C26.1221 7.068 26.0421 7.044 25.9301 7.028C25.8181 7.028 25.7301 7.036 25.6661 7.052C25.6181 7.068 25.5701 7.132 25.5221 7.244C25.4741 7.356 25.4501 7.452 25.4501 7.532C25.4501 7.596 25.4981 7.668 25.5941 7.748C25.7061 7.844 25.7941 7.9 25.8581 7.916C25.9381 7.932 26.0421 7.9 26.1701 7.82C26.2821 7.74 26.3381 7.668 26.3381 7.604C26.3541 7.524 26.3381 7.42 26.2901 7.292ZM32.2181 8.588C32.2021 8.412 32.0981 8.3 31.9061 8.252C31.7621 8.22 31.6421 8.188 31.5461 8.156C31.4661 8.108 31.3861 8.156 31.3061 8.3C31.2101 8.444 31.1701 8.564 31.1861 8.66C31.2021 8.756 31.2661 8.868 31.3781 8.996C31.4901 9.124 31.5861 9.188 31.6661 9.188C31.7621 9.188 31.8901 9.156 32.0501 9.092C32.1621 9.044 32.2181 8.98 32.2181 8.9C32.2341 8.82 32.2341 8.716 32.2181 8.588ZM27.0581 8.204C26.9941 8.188 26.9381 8.18 26.8901 8.18C26.8421 8.164 26.7941 8.188 26.7461 8.252C26.6501 8.396 26.6501 8.524 26.7461 8.636C26.8101 8.7 26.8661 8.732 26.9141 8.732C26.9621 8.716 27.0261 8.692 27.1061 8.66C27.2021 8.628 27.2501 8.54 27.2501 8.396C27.2501 8.3 27.1861 8.236 27.0581 8.204ZM33.7061 8.492L33.4661 8.54L33.5381 8.78L33.7781 8.828L33.8261 8.612L33.7061 8.492ZM26.0741 9.188L25.8341 9.068L25.7621 9.332L25.8821 9.476L26.1221 9.428L26.0741 9.188ZM30.4421 9.38L30.1541 9.284L29.9861 9.476L30.1301 9.644L30.3461 9.62L30.4421 9.38ZM29.0501 9.908C29.0341 9.78 28.9941 9.7 28.9301 9.668C28.8661 9.636 28.7781 9.612 28.6661 9.596C28.5061 9.58 28.3781 9.556 28.2821 9.524C28.1861 9.492 28.0981 9.548 28.0181 9.692C27.9381 9.836 27.9221 9.948 27.9701 10.028C28.0341 10.108 28.1221 10.212 28.2341 10.34C28.3301 10.436 28.4101 10.476 28.4741 10.46C28.5541 10.428 28.6501 10.38 28.7621 10.316C28.8741 10.268 28.9541 10.22 29.0021 10.172C29.0501 10.124 29.0661 10.036 29.0501 9.908ZM28.2821 11.252C28.2501 11.124 28.2101 11.036 28.1621 10.988C28.1141 10.94 28.0261 10.916 27.8981 10.916C27.6741 10.916 27.5301 11.02 27.4661 11.228C27.4181 11.356 27.4101 11.452 27.4421 11.516C27.4741 11.58 27.5381 11.652 27.6341 11.732C27.8101 11.844 27.9861 11.844 28.1621 11.732C28.3061 11.604 28.3461 11.444 28.2821 11.252ZM30.5621 11.372C30.4661 11.308 30.3861 11.292 30.3221 11.324C30.2581 11.34 30.1781 11.38 30.0821 11.444C29.9861 11.508 29.9221 11.572 29.8901 11.636C29.8741 11.684 29.8821 11.756 29.9141 11.852C29.9621 11.996 30.0021 12.108 30.0341 12.188C30.0661 12.268 30.1541 12.308 30.2981 12.308C30.4581 12.308 30.5541 12.276 30.5861 12.212C30.6341 12.132 30.6821 12.02 30.7301 11.876C30.7781 11.748 30.7861 11.652 30.7541 11.588C30.7221 11.524 30.6581 11.452 30.5621 11.372ZM30.9221 13.196C30.5541 13.02 30.2741 13.004 30.0821 13.148C29.9061 13.276 29.6821 13.5 29.4101 13.82C29.1541 14.108 28.9861 14.348 28.9061 14.54C28.8261 14.732 28.8821 14.988 29.0741 15.308C29.2981 15.708 29.5061 15.988 29.6981 16.148C29.8901 16.292 30.2021 16.316 30.6341 16.22C31.0821 16.14 31.3541 15.988 31.4501 15.764C31.5461 15.54 31.6181 15.204 31.6661 14.756C31.7141 14.324 31.6981 14.004 31.6181 13.796C31.5541 13.572 31.3221 13.372 30.9221 13.196ZM27.8261 14.396L27.6101 14.42L27.4901 14.636L27.8261 14.588V14.396ZM34.7621 15.092L34.5941 14.948L34.4261 15.092L34.4501 15.332L34.7141 15.308L34.7621 15.092ZM33.8981 15.692C33.8341 15.516 33.7621 15.404 33.6821 15.356C33.6181 15.292 33.4981 15.268 33.3221 15.284C33.1461 15.3 33.0341 15.348 32.9861 15.428C32.9381 15.508 32.8981 15.628 32.8661 15.788C32.8181 15.98 32.7781 16.14 32.7461 16.268C32.7141 16.38 32.7861 16.484 32.9621 16.58C33.1381 16.692 33.2821 16.724 33.3941 16.676C33.5061 16.628 33.6421 16.532 33.8021 16.388C33.9301 16.276 33.9941 16.172 33.9941 16.076C33.9941 15.98 33.9621 15.852 33.8981 15.692ZM31.9301 16.916C31.9141 16.82 31.8821 16.764 31.8341 16.748C31.7861 16.732 31.7061 16.708 31.5941 16.676C31.4661 16.644 31.3701 16.692 31.3061 16.82C31.2101 16.964 31.2101 17.084 31.3061 17.18C31.3541 17.244 31.4021 17.268 31.4501 17.252C31.4981 17.22 31.5621 17.188 31.6421 17.156C31.7221 17.124 31.7941 17.1 31.8581 17.084C31.9221 17.068 31.9461 17.012 31.9301 16.916ZM34.1141 17.54L33.8741 17.612L33.9461 17.876L34.1621 17.852L34.3301 17.684L34.1141 17.54ZM44.2235 18.74C42.1275 18.74 40.4555 18.228 39.2075 17.204C37.9755 16.164 37.3595 14.524 37.3595 12.284V12.116C37.3915 10.052 38.0235 8.484 39.2555 7.412C40.5035 6.324 42.1515 5.78 44.1995 5.78C45.7675 5.78 47.0555 6.084 48.0635 6.692C49.0715 7.284 49.8155 8.076 50.2955 9.068C50.7915 10.044 51.0395 11.124 51.0395 12.308V13.028C51.0395 13.204 50.9755 13.356 50.8475 13.484C50.7195 13.612 50.5675 13.676 50.3915 13.676H43.2395V13.796C43.2395 14.276 43.3035 14.644 43.4315 14.9C43.5755 15.14 43.8235 15.26 44.1755 15.26C44.3195 15.26 44.4395 15.22 44.5355 15.14C44.6315 15.06 44.7435 14.956 44.8715 14.828C45.0155 14.684 45.1355 14.596 45.2315 14.564C45.3275 14.516 45.4715 14.492 45.6635 14.492H50.1995C50.3595 14.492 50.4875 14.54 50.5835 14.636C50.6955 14.732 50.7435 14.86 50.7275 15.02C50.7115 15.324 50.5675 15.692 50.2955 16.124C50.0395 16.54 49.6475 16.948 49.1195 17.348C48.5915 17.748 47.9195 18.084 47.1035 18.356C46.2875 18.612 45.3275 18.74 44.2235 18.74ZM40.7675 7.7C40.6235 7.7 40.5355 7.74 40.5035 7.82C40.4715 7.884 40.4315 7.988 40.3835 8.132C40.3515 8.212 40.3515 8.276 40.3835 8.324C40.4315 8.372 40.4955 8.42 40.5755 8.468C40.6555 8.548 40.7195 8.612 40.7675 8.66C40.8315 8.708 40.9115 8.7 41.0075 8.636C41.1195 8.556 41.1915 8.484 41.2235 8.42C41.2555 8.356 41.2475 8.252 41.1995 8.108C41.1675 7.964 41.1195 7.86 41.0555 7.796C41.0075 7.732 40.9115 7.7 40.7675 7.7ZM43.2395 10.676H43.9595C43.9435 10.644 43.9275 10.604 43.9115 10.556C43.8315 10.268 43.7755 10.02 43.7435 9.812C43.7115 9.604 43.7195 9.412 43.7675 9.236C43.8795 9.172 44.0235 9.14 44.1995 9.14C44.8395 9.14 45.1595 9.644 45.1595 10.652L43.9595 10.676C44.0875 11.124 44.1755 11.524 44.2235 11.876C44.2875 12.228 44.4075 12.508 44.5835 12.716C44.7755 12.908 45.1115 13.012 45.5915 13.028C46.1835 13.044 46.6555 13.004 47.0075 12.908C47.3755 12.796 47.6715 12.596 47.8955 12.308C48.1195 12.004 48.3275 11.572 48.5195 11.012C48.6795 10.532 48.6955 10.172 48.5675 9.932C48.4395 9.676 48.2075 9.452 47.8715 9.26C47.5515 9.068 47.1915 8.82 46.7915 8.516C46.3275 8.164 45.9435 7.98 45.6395 7.964C45.3515 7.932 44.9675 8.076 44.4875 8.396C44.0875 8.684 43.8475 8.964 43.7675 9.236C43.4155 9.428 43.2395 9.908 43.2395 10.676ZM39.7835 9.14C39.6875 9.108 39.6075 9.108 39.5435 9.14C39.4955 9.172 39.4395 9.228 39.3755 9.308C39.2795 9.404 39.1915 9.484 39.1115 9.548C39.0475 9.596 39.0475 9.684 39.1115 9.812C39.1915 9.94 39.2715 9.988 39.3515 9.956C39.4315 9.908 39.5435 9.868 39.6875 9.836C39.8315 9.804 39.9115 9.708 39.9275 9.548C39.9435 9.452 39.9435 9.372 39.9275 9.308C39.9275 9.244 39.8795 9.188 39.7835 9.14ZM41.6555 9.404C41.4635 9.308 41.3115 9.268 41.1995 9.284C41.1035 9.3 40.9915 9.38 40.8635 9.524C40.7195 9.684 40.6395 9.82 40.6235 9.932C40.6075 10.028 40.6555 10.164 40.7675 10.34C40.8475 10.5 40.9355 10.572 41.0315 10.556C41.1435 10.524 41.2875 10.492 41.4635 10.46C41.6235 10.428 41.7515 10.404 41.8475 10.388C41.9435 10.356 41.9995 10.252 42.0155 10.076C42.0315 9.884 42.0155 9.748 41.9675 9.668C41.9355 9.572 41.8315 9.484 41.6555 9.404ZM40.6235 11.42C40.5435 11.308 40.4635 11.252 40.3835 11.252C40.3035 11.252 40.1995 11.276 40.0715 11.324C39.9275 11.372 39.8315 11.428 39.7835 11.492C39.7355 11.54 39.7115 11.636 39.7115 11.78C39.7115 11.956 39.7195 12.092 39.7355 12.188C39.7675 12.284 39.8635 12.356 40.0235 12.404C40.1995 12.452 40.3275 12.452 40.4075 12.404C40.4875 12.34 40.5835 12.228 40.6955 12.068C40.7915 11.94 40.8315 11.836 40.8155 11.756C40.7995 11.66 40.7355 11.548 40.6235 11.42ZM41.8475 11.66C41.7195 11.644 41.6395 11.668 41.6075 11.732C41.5755 11.796 41.5275 11.892 41.4635 12.02C41.4155 12.148 41.3755 12.252 41.3435 12.332C41.3115 12.396 41.3435 12.468 41.4395 12.548C41.5515 12.66 41.6475 12.716 41.7275 12.716C41.8075 12.716 41.9195 12.676 42.0635 12.596C42.1915 12.516 42.2875 12.444 42.3515 12.38C42.4155 12.316 42.4235 12.204 42.3755 12.044C42.3435 11.884 42.2875 11.788 42.2075 11.756C42.1275 11.708 42.0075 11.676 41.8475 11.66ZM39.6635 12.596C39.4715 12.548 39.3275 12.548 39.2315 12.596C39.1515 12.644 39.0555 12.748 38.9435 12.908C38.8635 13.052 38.8475 13.164 38.8955 13.244C38.9595 13.308 39.0395 13.404 39.1355 13.532C39.2155 13.644 39.2875 13.716 39.3515 13.748C39.4155 13.764 39.5035 13.748 39.6155 13.7C39.8235 13.62 39.9275 13.468 39.9275 13.244C39.9275 13.068 39.9275 12.932 39.9275 12.836C39.9275 12.724 39.8395 12.644 39.6635 12.596ZM40.4795 14.588C40.4795 14.476 40.4795 14.388 40.4795 14.324C40.4955 14.26 40.4555 14.22 40.3595 14.204C40.2475 14.172 40.1675 14.18 40.1195 14.228C40.0875 14.26 40.0395 14.324 39.9755 14.42C39.9275 14.484 39.9115 14.54 39.9275 14.588C39.9595 14.62 39.9995 14.668 40.0475 14.732C40.1115 14.812 40.1595 14.884 40.1915 14.948C40.2235 14.996 40.2875 15.004 40.3835 14.972C40.4795 14.94 40.5195 14.892 40.5035 14.828C40.4875 14.764 40.4795 14.684 40.4795 14.588ZM42.1115 14.564C41.9675 14.42 41.7995 14.396 41.6075 14.492C41.4795 14.572 41.3835 14.636 41.3195 14.684C41.2715 14.732 41.2555 14.828 41.2715 14.972C41.3035 15.116 41.3595 15.196 41.4395 15.212C41.5195 15.228 41.6315 15.244 41.7755 15.26C41.9195 15.276 42.0315 15.292 42.1115 15.308C42.2075 15.308 42.2875 15.244 42.3515 15.116C42.4155 14.988 42.4155 14.892 42.3515 14.828C42.3035 14.748 42.2235 14.66 42.1115 14.564ZM46.6235 15.212C46.5915 15.132 46.5515 15.084 46.5035 15.068C46.4715 15.052 46.4155 15.044 46.3355 15.044C46.1915 15.044 46.1035 15.092 46.0715 15.188C46.0235 15.316 46.0475 15.42 46.1435 15.5C46.2235 15.548 46.2795 15.588 46.3115 15.62C46.3595 15.652 46.4235 15.644 46.5035 15.596C46.5835 15.532 46.6235 15.476 46.6235 15.428C46.6395 15.38 46.6395 15.308 46.6235 15.212ZM45.5675 16.292C45.5515 16.1 45.5355 15.948 45.5195 15.836C45.5195 15.724 45.4235 15.644 45.2315 15.596C44.9915 15.532 44.8075 15.508 44.6795 15.524C44.5515 15.524 44.4235 15.628 44.2955 15.836C44.1675 16.028 44.1515 16.172 44.2475 16.268C44.3435 16.364 44.4555 16.5 44.5835 16.676C44.6955 16.82 44.7915 16.908 44.8715 16.94C44.9675 16.972 45.0955 16.956 45.2555 16.892C45.4155 16.828 45.5115 16.756 45.5435 16.676C45.5755 16.58 45.5835 16.452 45.5675 16.292ZM48.3275 16.124C48.2475 15.932 48.1755 15.788 48.1115 15.692C48.0635 15.58 47.9275 15.532 47.7035 15.548C47.4475 15.58 47.2555 15.628 47.1275 15.692C46.9995 15.756 46.9115 15.916 46.8635 16.172C46.8155 16.412 46.8395 16.58 46.9355 16.676C47.0475 16.772 47.2155 16.884 47.4395 17.012C47.6475 17.14 47.8155 17.228 47.9435 17.276C48.0875 17.324 48.2555 17.26 48.4475 17.084C48.6395 16.924 48.6875 16.78 48.5915 16.652C48.5115 16.524 48.4235 16.348 48.3275 16.124ZM42.6635 16.076L42.4235 15.932L42.2555 16.172L42.4235 16.34L42.6635 16.364V16.076ZM41.7995 16.58C41.6875 16.564 41.6075 16.58 41.5595 16.628C41.5275 16.66 41.4875 16.724 41.4395 16.82C41.3755 16.916 41.3355 16.996 41.3195 17.06C41.3035 17.124 41.3355 17.196 41.4155 17.276C41.5275 17.372 41.6155 17.444 41.6795 17.492C41.7435 17.524 41.8395 17.508 41.9675 17.444C42.0795 17.38 42.1195 17.308 42.0875 17.228C42.0715 17.148 42.0555 17.044 42.0395 16.916C42.0235 16.82 41.9995 16.748 41.9675 16.7C41.9515 16.636 41.8955 16.596 41.7995 16.58ZM53.3686 18.5C53.1926 18.5 53.0406 18.436 52.9126 18.308C52.7846 18.18 52.7206 18.028 52.7206 17.852V6.668C52.7206 6.492 52.7846 6.34 52.9126 6.212C53.0406 6.084 53.1926 6.02 53.3686 6.02H57.5686C57.7446 6.02 57.8966 6.084 58.0246 6.212C58.1526 6.34 58.2166 6.492 58.2166 6.668V7.508C58.7286 7.06 59.2966 6.7 59.9206 6.428C60.5606 6.156 61.2406 6.02 61.9606 6.02H63.1126C63.2886 6.02 63.4406 6.084 63.5686 6.212C63.6966 6.34 63.7606 6.492 63.7606 6.668V10.412C63.7606 10.588 63.6966 10.74 63.5686 10.868C63.4406 10.996 63.2886 11.06 63.1126 11.06H60.0166C59.0566 11.06 58.5766 11.54 58.5766 12.5V17.852C58.5766 18.028 58.5126 18.18 58.3846 18.308C58.2566 18.436 58.1046 18.5 57.9286 18.5H53.3686ZM56.8486 7.364C56.7846 7.204 56.7126 7.092 56.6326 7.028C56.5686 6.964 56.4486 6.932 56.2726 6.932C56.0646 6.932 55.9046 6.948 55.7926 6.98C55.6966 7.012 55.6166 7.124 55.5526 7.316C55.4726 7.556 55.4246 7.748 55.4086 7.892C55.4086 8.02 55.5126 8.164 55.7206 8.324C55.9286 8.468 56.0966 8.524 56.2246 8.492C56.3686 8.46 56.5446 8.372 56.7526 8.228C56.9286 8.1 57.0006 7.98 56.9686 7.868C56.9526 7.74 56.9126 7.572 56.8486 7.364ZM60.7366 7.124L60.5446 7.076L60.3526 7.148L60.4486 7.34L60.6886 7.364L60.7366 7.124ZM59.9206 7.724C59.5686 7.58 59.2966 7.548 59.1046 7.628C58.9126 7.692 58.6966 7.876 58.4566 8.18C58.2166 8.468 58.0886 8.708 58.0726 8.9C58.0726 9.092 58.1766 9.348 58.3846 9.668C58.5766 9.988 58.7606 10.188 58.9366 10.268C59.1286 10.332 59.4086 10.316 59.7766 10.22C60.1286 10.124 60.3446 9.996 60.4246 9.836C60.5206 9.66 60.5766 9.396 60.5926 9.044C60.6086 8.66 60.5846 8.38 60.5206 8.204C60.4726 8.012 60.2726 7.852 59.9206 7.724ZM53.8246 8.396L53.6566 8.516L53.7046 8.708L53.9446 8.732L54.0406 8.516L53.8246 8.396ZM62.9206 9.164C62.8886 9.02 62.8406 8.932 62.7766 8.9C62.7126 8.852 62.6006 8.812 62.4406 8.78C62.2646 8.764 62.1206 8.748 62.0086 8.732C61.9126 8.716 61.8246 8.788 61.7446 8.948C61.6486 9.124 61.6086 9.268 61.6246 9.38C61.6406 9.476 61.7206 9.604 61.8646 9.764C62.0086 9.892 62.1286 9.956 62.2246 9.956C62.3366 9.94 62.4726 9.884 62.6326 9.788C62.7926 9.708 62.8806 9.628 62.8966 9.548C62.9286 9.468 62.9366 9.34 62.9206 9.164ZM56.1286 9.956C56.0966 9.652 56.0006 9.468 55.8406 9.404C55.6966 9.34 55.4806 9.276 55.1926 9.212C54.8566 9.132 54.5846 9.06 54.3766 8.996C54.1846 8.932 54.0006 9.052 53.8246 9.356C53.6486 9.66 53.6166 9.892 53.7286 10.052C53.8566 10.212 54.0326 10.428 54.2566 10.7C54.4806 10.956 54.6646 11.14 54.8086 11.252C54.9526 11.348 55.1766 11.332 55.4806 11.204C55.8006 11.06 55.9926 10.908 56.0566 10.748C56.1366 10.572 56.1606 10.308 56.1286 9.956ZM58.1926 10.604C58.0806 10.444 57.9766 10.34 57.8806 10.292C57.8006 10.244 57.6646 10.244 57.4726 10.292C57.2966 10.34 57.1926 10.42 57.1606 10.532C57.1446 10.628 57.1366 10.764 57.1366 10.94C57.1366 11.116 57.1526 11.244 57.1846 11.324C57.2166 11.404 57.3046 11.468 57.4486 11.516C57.6246 11.58 57.7526 11.604 57.8326 11.588C57.9286 11.556 58.0326 11.468 58.1446 11.324C58.2566 11.18 58.3206 11.06 58.3366 10.964C58.3526 10.868 58.3046 10.748 58.1926 10.604ZM53.8246 11.444C53.7126 11.412 53.6406 11.428 53.6086 11.492C53.5766 11.54 53.5286 11.604 53.4646 11.684C53.4166 11.764 53.3766 11.828 53.3446 11.876C53.3286 11.908 53.3526 11.964 53.4166 12.044C53.5126 12.188 53.6326 12.236 53.7766 12.188C53.9526 12.14 54.0406 12.028 54.0406 11.852C54.0406 11.74 54.0326 11.652 54.0166 11.588C54.0006 11.524 53.9366 11.476 53.8246 11.444ZM55.1686 12.02C55.0886 11.956 55.0166 11.908 54.9526 11.876C54.9046 11.828 54.8246 11.836 54.7126 11.9C54.6166 11.964 54.5686 12.028 54.5686 12.092C54.5846 12.156 54.6006 12.244 54.6166 12.356C54.6486 12.468 54.6726 12.556 54.6886 12.62C54.7206 12.668 54.7926 12.7 54.9046 12.716C55.0166 12.732 55.0886 12.716 55.1206 12.668C55.1526 12.604 55.1926 12.516 55.2406 12.404C55.3046 12.244 55.2806 12.116 55.1686 12.02ZM56.6326 12.02C56.5686 11.956 56.5126 11.916 56.4646 11.9C56.4166 11.868 56.3526 11.876 56.2726 11.924C56.1766 11.972 56.1206 12.02 56.1046 12.068C56.1046 12.116 56.1126 12.188 56.1286 12.284C56.1606 12.428 56.2566 12.508 56.4166 12.524C56.5126 12.54 56.5846 12.548 56.6326 12.548C56.6966 12.532 56.7526 12.484 56.8006 12.404C56.8326 12.308 56.8326 12.244 56.8006 12.212C56.7686 12.164 56.7126 12.1 56.6326 12.02ZM57.8326 12.596C57.8326 12.5 57.8006 12.444 57.7366 12.428C57.6886 12.396 57.6166 12.364 57.5206 12.332C57.4246 12.316 57.3446 12.3 57.2806 12.284C57.2326 12.268 57.1846 12.3 57.1366 12.38C57.0726 12.46 57.0486 12.532 57.0646 12.596C57.0806 12.644 57.1206 12.708 57.1846 12.788C57.2486 12.884 57.3046 12.948 57.3526 12.98C57.4006 12.996 57.4726 12.988 57.5686 12.956C57.7446 12.892 57.8326 12.772 57.8326 12.596ZM54.3526 13.46C54.3366 13.364 54.2566 13.308 54.1126 13.292C53.9846 13.276 53.8966 13.308 53.8486 13.388C53.8006 13.5 53.8166 13.604 53.8966 13.7C54.0086 13.796 54.1206 13.82 54.2326 13.772C54.3286 13.708 54.3686 13.604 54.3526 13.46ZM55.7446 13.796C55.4406 13.7 55.2086 13.684 55.0486 13.748C54.8886 13.796 54.7206 13.956 54.5446 14.228C54.3526 14.484 54.2406 14.7 54.2086 14.876C54.1926 15.052 54.2806 15.268 54.4726 15.524C54.6486 15.764 54.8166 15.852 54.9766 15.788C55.1366 15.708 55.3526 15.628 55.6246 15.548C55.8646 15.468 56.0406 15.396 56.1526 15.332C56.2806 15.252 56.3446 15.092 56.3446 14.852C56.3446 14.548 56.3126 14.324 56.2486 14.18C56.2006 14.02 56.0326 13.892 55.7446 13.796ZM57.5206 14.18C57.4726 14.02 57.3846 13.94 57.2566 13.94C57.1606 13.94 57.1046 13.964 57.0886 14.012C57.0726 14.06 57.0486 14.124 57.0166 14.204C56.9846 14.348 57.0086 14.452 57.0886 14.516C57.1526 14.564 57.2006 14.58 57.2326 14.564C57.2806 14.532 57.3286 14.492 57.3766 14.444C57.4406 14.396 57.4886 14.364 57.5206 14.348C57.5526 14.316 57.5526 14.26 57.5206 14.18ZM54.7126 16.7C54.6806 16.572 54.6246 16.508 54.5446 16.508C54.4646 16.492 54.3526 16.468 54.2086 16.436C54.0326 16.404 53.9046 16.468 53.8246 16.628C53.7606 16.74 53.7126 16.836 53.6806 16.916C53.6486 16.98 53.6806 17.068 53.7766 17.18C53.9046 17.292 54.0086 17.364 54.0886 17.396C54.1686 17.412 54.2806 17.38 54.4246 17.3C54.5686 17.236 54.6566 17.164 54.6886 17.084C54.7206 17.004 54.7286 16.876 54.7126 16.7ZM57.8326 16.652C57.7686 16.54 57.6966 16.484 57.6166 16.484C57.5526 16.484 57.4566 16.492 57.3286 16.508C57.2326 16.524 57.1686 16.556 57.1366 16.604C57.1206 16.652 57.1046 16.724 57.0886 16.82C57.0726 16.932 57.0566 17.028 57.0406 17.108C57.0406 17.172 57.0966 17.228 57.2086 17.276C57.3206 17.34 57.4086 17.364 57.4726 17.348C57.5366 17.316 57.6166 17.26 57.7126 17.18C57.8086 17.068 57.8646 16.98 57.8806 16.916C57.9126 16.852 57.8966 16.764 57.8326 16.652ZM65.7905 18.5C65.6145 18.5 65.4625 18.436 65.3345 18.308C65.2065 18.18 65.1425 18.028 65.1425 17.852V6.668C65.1425 6.492 65.2065 6.34 65.3345 6.212C65.4625 6.084 65.6145 6.02 65.7905 6.02H69.9905C70.1665 6.02 70.3185 6.084 70.4465 6.212C70.5745 6.34 70.6385 6.492 70.6385 6.668V7.46C71.0385 6.996 71.5905 6.604 72.2945 6.284C72.9985 5.948 73.7745 5.78 74.6225 5.78C75.4385 5.78 76.1985 5.972 76.9025 6.356C77.6065 6.74 78.1745 7.332 78.6065 8.132C79.0545 8.932 79.2785 9.964 79.2785 11.228V17.852C79.2785 18.028 79.2145 18.18 79.0865 18.308C78.9585 18.436 78.8065 18.5 78.6305 18.5H74.0465C73.8705 18.5 73.7185 18.436 73.5905 18.308C73.4625 18.18 73.3985 18.028 73.3985 17.852V11.396C73.3985 10.516 72.9985 10.076 72.1985 10.076C71.3985 10.076 70.9985 10.516 70.9985 11.396V17.852C70.9985 18.028 70.9345 18.18 70.8065 18.308C70.6785 18.436 70.5265 18.5 70.3505 18.5H65.7905ZM67.0865 6.452C66.9425 6.436 66.8305 6.444 66.7505 6.476C66.6865 6.492 66.6225 6.564 66.5585 6.692C66.4945 6.82 66.4705 6.924 66.4865 7.004C66.5185 7.068 66.5905 7.148 66.7025 7.244C66.7985 7.356 66.8785 7.428 66.9425 7.46C67.0225 7.492 67.1265 7.476 67.2545 7.412C67.3985 7.332 67.4865 7.26 67.5185 7.196C67.5505 7.116 67.5585 7.004 67.5425 6.86C67.5105 6.7 67.4625 6.604 67.3985 6.572C67.3345 6.524 67.2305 6.484 67.0865 6.452ZM68.4065 7.076L68.1665 6.956L67.9745 7.076L67.9505 7.388H68.2865L68.4065 7.076ZM69.2945 8.444L69.1025 8.3L68.8865 8.42L68.9825 8.636L69.2465 8.708L69.2945 8.444ZM70.3985 8.612L70.1345 8.444L69.9665 8.708L70.0865 8.924H70.3745L70.3985 8.612ZM67.3265 8.612C67.2785 8.548 67.2305 8.516 67.1825 8.516C67.1505 8.5 67.0865 8.5 66.9905 8.516C66.8465 8.548 66.7665 8.612 66.7505 8.708C66.7345 8.836 66.7905 8.932 66.9185 8.996C67.0145 9.044 67.1105 9.02 67.2065 8.924C67.2705 8.86 67.3105 8.812 67.3265 8.78C67.3585 8.748 67.3585 8.692 67.3265 8.612ZM73.3985 8.564C73.2865 8.516 73.1905 8.492 73.1105 8.492C73.0465 8.492 72.9825 8.54 72.9185 8.636C72.8385 8.764 72.7905 8.868 72.7745 8.948C72.7585 9.012 72.7985 9.108 72.8945 9.236C72.9745 9.332 73.0465 9.372 73.1105 9.356C73.1905 9.324 73.2945 9.284 73.4225 9.236C73.5985 9.172 73.6865 9.052 73.6865 8.876C73.6865 8.716 73.5905 8.612 73.3985 8.564ZM71.5025 8.684C71.3585 8.636 71.2465 8.612 71.1665 8.612C71.0865 8.596 70.9985 8.652 70.9025 8.78C70.8065 8.892 70.7745 8.988 70.8065 9.068C70.8385 9.132 70.8945 9.228 70.9745 9.356C71.0385 9.468 71.1025 9.54 71.1665 9.572C71.2305 9.588 71.3265 9.58 71.4545 9.548C71.5825 9.516 71.6705 9.476 71.7185 9.428C71.7825 9.38 71.8145 9.284 71.8145 9.14C71.8145 8.996 71.7905 8.9 71.7425 8.852C71.7105 8.788 71.6305 8.732 71.5025 8.684ZM76.5905 9.26C76.4305 9.132 76.3025 9.036 76.2065 8.972C76.1105 8.908 75.9745 8.924 75.7985 9.02C75.6065 9.132 75.5185 9.244 75.5345 9.356C75.5505 9.468 75.5825 9.628 75.6305 9.836C75.6625 10.044 75.6945 10.212 75.7265 10.34C75.7585 10.468 75.8785 10.548 76.0865 10.58C76.3105 10.596 76.4545 10.556 76.5185 10.46C76.5985 10.348 76.6865 10.188 76.7825 9.98C76.8465 9.804 76.8625 9.676 76.8305 9.596C76.7985 9.5 76.7185 9.388 76.5905 9.26ZM69.7025 9.476C69.6225 9.348 69.5505 9.244 69.4865 9.164C69.4385 9.068 69.3345 9.044 69.1745 9.092C69.0145 9.124 68.9265 9.188 68.9105 9.284C68.8945 9.38 68.8785 9.516 68.8625 9.692C68.8465 9.916 68.9505 10.076 69.1745 10.172C69.2865 10.204 69.3665 10.196 69.4145 10.148C69.4625 10.1 69.5265 10.028 69.6065 9.932C69.6705 9.852 69.7185 9.788 69.7505 9.74C69.7825 9.676 69.7665 9.588 69.7025 9.476ZM67.1105 9.932C66.9185 9.884 66.7745 9.94 66.6785 10.1C66.5985 10.228 66.5425 10.332 66.5105 10.412C66.4785 10.476 66.5025 10.564 66.5825 10.676C66.6785 10.788 66.7665 10.828 66.8465 10.796C66.9265 10.764 67.0305 10.724 67.1585 10.676C67.2545 10.628 67.3105 10.58 67.3265 10.532C67.3425 10.484 67.3505 10.404 67.3505 10.292C67.3505 10.18 67.3345 10.1 67.3025 10.052C67.2705 10.004 67.2065 9.964 67.1105 9.932ZM78.4865 11.012L78.3425 10.94L78.1265 11.036L78.2465 11.252H78.4865V11.012ZM66.0785 11.3L65.8865 11.132L65.7185 11.324L65.8145 11.492L66.0305 11.54L66.0785 11.3ZM69.9185 11.708C69.8865 11.532 69.7905 11.428 69.6305 11.396C69.4545 11.364 69.3265 11.428 69.2465 11.588C69.1665 11.748 69.1825 11.884 69.2945 11.996C69.3745 12.076 69.4385 12.116 69.4865 12.116C69.5345 12.1 69.6065 12.076 69.7025 12.044C69.7825 11.996 69.8385 11.956 69.8705 11.924C69.9185 11.876 69.9345 11.804 69.9185 11.708ZM68.5985 12.404C68.4385 12.18 68.2945 12.036 68.1665 11.972C68.0385 11.908 67.8385 11.916 67.5665 11.996C67.3105 12.06 67.1745 12.164 67.1585 12.308C67.1425 12.452 67.1265 12.652 67.1105 12.908C67.0945 13.164 67.0945 13.364 67.1105 13.508C67.1265 13.652 67.2545 13.772 67.4945 13.868C67.7185 13.948 67.8705 13.924 67.9505 13.796C68.0465 13.668 68.1665 13.508 68.3105 13.316C68.4705 13.124 68.5905 12.98 68.6705 12.884C68.7665 12.772 68.7425 12.612 68.5985 12.404ZM76.5905 12.428C76.3025 12.204 76.0625 12.06 75.8705 11.996C75.6785 11.932 75.4385 12.012 75.1505 12.236C74.7985 12.492 74.5425 12.716 74.3825 12.908C74.2385 13.1 74.2305 13.404 74.3585 13.82C74.5025 14.252 74.6865 14.516 74.9105 14.612C75.1345 14.708 75.4785 14.756 75.9425 14.756C76.3265 14.756 76.5745 14.668 76.6865 14.492C76.7985 14.316 76.9185 14.044 77.0465 13.676C77.1425 13.356 77.1585 13.116 77.0945 12.956C77.0305 12.796 76.8625 12.62 76.5905 12.428ZM69.8705 13.988C69.7585 13.972 69.6785 14.012 69.6305 14.108C69.5825 14.188 69.5345 14.252 69.4865 14.3C69.4545 14.348 69.4705 14.404 69.5345 14.468C69.6625 14.596 69.8145 14.612 69.9905 14.516C70.0705 14.484 70.1105 14.444 70.1105 14.396C70.1105 14.332 70.1025 14.252 70.0865 14.156C70.0705 14.076 69.9985 14.02 69.8705 13.988ZM78.8225 14.804L78.5105 14.732L78.3905 14.972L78.4625 15.188L78.6785 15.068L78.8225 14.804ZM69.9185 15.164L69.6305 15.092V15.38L69.7985 15.524L69.9905 15.38L69.9185 15.164ZM67.2305 15.38L67.0145 15.26L66.8945 15.476L67.0385 15.62H67.3025L67.2305 15.38ZM76.2305 15.86L76.0865 15.668L75.8945 15.86L76.0145 16.028L76.1585 16.004L76.2305 15.86ZM67.6145 16.364C67.5025 16.268 67.4065 16.204 67.3265 16.172C67.2625 16.14 67.1665 16.156 67.0385 16.22C66.9105 16.3 66.8465 16.38 66.8465 16.46C66.8465 16.54 66.8625 16.652 66.8945 16.796C66.9425 16.94 66.9825 17.052 67.0145 17.132C67.0465 17.196 67.1345 17.236 67.2785 17.252C67.4385 17.268 67.5505 17.252 67.6145 17.204C67.6945 17.156 67.7665 17.06 67.8305 16.916C67.8945 16.788 67.9025 16.692 67.8545 16.628C67.8065 16.548 67.7265 16.46 67.6145 16.364ZM70.0625 16.628C69.9025 16.484 69.7345 16.46 69.5585 16.556C69.4145 16.652 69.2945 16.724 69.1985 16.772C69.1185 16.82 69.1025 16.924 69.1505 17.084C69.1825 17.276 69.2305 17.42 69.2945 17.516C69.3585 17.596 69.4945 17.644 69.7025 17.66C69.8785 17.676 69.9905 17.636 70.0385 17.54C70.0865 17.444 70.1425 17.308 70.2065 17.132C70.2705 17.004 70.2865 16.908 70.2545 16.844C70.2225 16.78 70.1585 16.708 70.0625 16.628ZM75.4385 16.844C75.2945 16.78 75.1825 16.804 75.1025 16.916C75.0225 17.012 75.0305 17.124 75.1265 17.252C75.2225 17.396 75.3265 17.444 75.4385 17.396C75.5505 17.364 75.6065 17.268 75.6065 17.108C75.6065 16.964 75.5505 16.876 75.4385 16.844ZM78.5585 17.012C78.4625 16.916 78.3745 16.884 78.2945 16.916C78.2145 16.964 78.1505 17.004 78.1025 17.036C78.0545 17.068 78.0385 17.132 78.0545 17.228C78.0705 17.308 78.1025 17.356 78.1505 17.372C78.2145 17.388 78.2865 17.404 78.3665 17.42C78.5265 17.436 78.6385 17.396 78.7025 17.3C78.7345 17.22 78.7345 17.164 78.7025 17.132C78.6705 17.1 78.6225 17.06 78.5585 17.012ZM66.4385 17.204L66.1265 17.18L65.9105 17.372L66.0545 17.684L66.3905 17.54L66.4385 17.204ZM87.1704 18.74C86.0184 18.74 85.0344 18.628 84.2184 18.404C83.4184 18.164 82.7624 17.868 82.2504 17.516C81.7544 17.148 81.3864 16.772 81.1464 16.388C80.9064 15.988 80.7784 15.628 80.7624 15.308C80.7464 15.132 80.7944 14.98 80.9064 14.852C81.0344 14.724 81.1784 14.66 81.3384 14.66H85.6104C85.8184 14.676 86.0024 14.748 86.1624 14.876C86.3384 14.988 86.5144 15.1 86.6904 15.212C86.8824 15.324 87.0984 15.38 87.3384 15.38C87.4664 15.38 87.5864 15.348 87.6984 15.284C87.8264 15.22 87.8904 15.132 87.8904 15.02C87.8904 14.876 87.8424 14.748 87.7464 14.636C87.6664 14.524 87.4504 14.412 87.0984 14.3C86.7624 14.172 86.1944 14.036 85.3944 13.892C84.6584 13.748 83.9544 13.524 83.2824 13.22C82.6104 12.916 82.0584 12.492 81.6264 11.948C81.2104 11.404 81.0024 10.716 81.0024 9.884C81.0024 9.196 81.2344 8.54 81.6984 7.916C82.1624 7.292 82.8424 6.78 83.7384 6.38C84.6504 5.98 85.7624 5.78 87.0744 5.78C88.4024 5.78 89.5304 5.972 90.4584 6.356C91.3864 6.74 92.0984 7.196 92.5944 7.724C93.0904 8.252 93.3464 8.748 93.3624 9.212C93.3784 9.388 93.3304 9.54 93.2184 9.668C93.1064 9.796 92.9784 9.86 92.8344 9.86H88.8024C88.5784 9.86 88.3784 9.804 88.2024 9.692C88.0264 9.564 87.8504 9.444 87.6744 9.332C87.4984 9.204 87.2904 9.14 87.0504 9.14C86.9384 9.14 86.8264 9.18 86.7144 9.26C86.6184 9.324 86.5704 9.412 86.5704 9.524C86.5704 9.652 86.6184 9.78 86.7144 9.908C86.8104 10.02 87.0424 10.132 87.4104 10.244C87.7784 10.34 88.3784 10.452 89.2104 10.58C90.3624 10.74 91.2824 11.036 91.9704 11.468C92.6584 11.9 93.1464 12.396 93.4344 12.956C93.7384 13.516 93.8904 14.068 93.8904 14.612C93.8904 15.892 93.3064 16.9 92.1384 17.636C90.9864 18.372 89.3304 18.74 87.1704 18.74ZM86.4984 6.548L86.2584 6.668L86.2344 6.884L86.4744 7.1L86.6424 6.812L86.4984 6.548ZM88.6824 6.932C88.5544 6.9 88.4664 6.916 88.4184 6.98C88.3864 7.044 88.3384 7.132 88.2744 7.244C88.2104 7.356 88.1544 7.444 88.1064 7.508C88.0584 7.572 88.0744 7.652 88.1544 7.748C88.2504 7.86 88.3304 7.9 88.3944 7.868C88.4744 7.836 88.5784 7.796 88.7064 7.748C88.8184 7.7 88.9064 7.66 88.9704 7.628C89.0504 7.58 89.0824 7.492 89.0664 7.364C89.0504 7.124 88.9224 6.98 88.6824 6.932ZM84.8664 7.004L84.7224 6.932L84.6504 7.076L84.7224 7.244L84.9384 7.196L84.8664 7.004ZM90.8904 7.268C90.7464 7.236 90.6424 7.244 90.5784 7.292C90.5144 7.324 90.4504 7.404 90.3864 7.532C90.2744 7.724 90.2904 7.9 90.4344 8.06C90.5144 8.156 90.5864 8.204 90.6504 8.204C90.7144 8.188 90.8024 8.156 90.9144 8.108C91.0904 8.028 91.1704 7.908 91.1544 7.748C91.1384 7.604 91.1224 7.492 91.1064 7.412C91.0904 7.332 91.0184 7.284 90.8904 7.268ZM85.8504 7.676C85.6264 7.532 85.4424 7.492 85.2984 7.556C85.1704 7.604 85.0024 7.716 84.7944 7.892C84.5864 8.068 84.4504 8.22 84.3864 8.348C84.3384 8.46 84.3624 8.644 84.4584 8.9C84.5384 9.108 84.6504 9.204 84.7944 9.188C84.9384 9.156 85.1304 9.132 85.3704 9.116C85.6104 9.1 85.8024 9.1 85.9464 9.116C86.1064 9.132 86.2184 9.02 86.2824 8.78C86.3464 8.492 86.3544 8.276 86.3064 8.132C86.2584 7.988 86.1064 7.836 85.8504 7.676ZM90.0744 8.684H89.8344L89.7624 8.948L90.0024 9.02L90.1224 8.876L90.0744 8.684ZM91.8504 8.9L91.6104 9.044L91.6584 9.332L91.9224 9.284L91.9944 9.092L91.8504 8.9ZM83.1384 9.356C83.0744 9.292 83.0264 9.236 82.9944 9.188C82.9624 9.14 82.9064 9.14 82.8264 9.188C82.6664 9.268 82.6024 9.388 82.6344 9.548C82.6664 9.708 82.7704 9.804 82.9464 9.836C83.0904 9.852 83.2024 9.788 83.2824 9.644C83.3144 9.564 83.3144 9.508 83.2824 9.476C83.2504 9.444 83.2024 9.404 83.1384 9.356ZM85.9224 11.54C85.8264 11.348 85.7464 11.196 85.6824 11.084C85.6184 10.972 85.4824 10.932 85.2744 10.964C85.0344 10.996 84.8744 11.068 84.7944 11.18C84.7304 11.276 84.6744 11.436 84.6264 11.66C84.5944 11.868 84.6184 12.012 84.6984 12.092C84.7944 12.156 84.9304 12.236 85.1064 12.332C85.2824 12.428 85.4264 12.492 85.5384 12.524C85.6504 12.54 85.7784 12.476 85.9224 12.332C86.0504 12.204 86.0984 12.092 86.0664 11.996C86.0504 11.884 86.0024 11.732 85.9224 11.54ZM83.1144 11.324L82.9944 11.18L82.8504 11.3L82.8264 11.516H83.0664L83.1144 11.324ZM89.0664 11.396C88.9704 11.38 88.9144 11.404 88.8984 11.468C88.8984 11.516 88.8744 11.58 88.8264 11.66C88.7784 11.74 88.7864 11.82 88.8504 11.9C88.9464 11.98 89.0264 12.004 89.0904 11.972C89.2344 11.908 89.2984 11.82 89.2824 11.708C89.2664 11.612 89.2504 11.54 89.2344 11.492C89.2184 11.444 89.1624 11.412 89.0664 11.396ZM90.6744 13.34C90.2424 13.228 89.9064 13.18 89.6664 13.196C89.4424 13.212 89.2024 13.404 88.9464 13.772C88.7064 14.14 88.6104 14.444 88.6584 14.684C88.7064 14.908 88.8664 15.204 89.1384 15.572C89.3624 15.86 89.5704 15.956 89.7624 15.86C89.9704 15.764 90.2504 15.652 90.6024 15.524C90.9544 15.396 91.2424 15.308 91.4664 15.26C91.7064 15.196 91.8184 14.98 91.8024 14.612C91.7864 14.18 91.6904 13.892 91.5144 13.748C91.3544 13.604 91.0744 13.468 90.6744 13.34ZM88.4184 13.748C88.4024 13.62 88.3144 13.532 88.1544 13.484C88.0584 13.468 87.9784 13.46 87.9144 13.46C87.8664 13.46 87.8184 13.5 87.7704 13.58C87.6904 13.708 87.7064 13.844 87.8184 13.988C87.9144 14.1 88.0424 14.124 88.2024 14.06C88.3624 13.996 88.4344 13.892 88.4184 13.748ZM86.1384 15.548C86.0264 15.452 85.9304 15.388 85.8504 15.356C85.7704 15.308 85.6664 15.324 85.5384 15.404C85.4104 15.484 85.3624 15.564 85.3944 15.644C85.4424 15.724 85.4824 15.836 85.5144 15.98C85.5624 16.124 85.5864 16.244 85.5864 16.34C85.5864 16.42 85.6584 16.468 85.8024 16.484C85.9784 16.5 86.1064 16.484 86.1864 16.436C86.2664 16.388 86.3384 16.284 86.4024 16.124C86.4664 15.98 86.4664 15.876 86.4024 15.812C86.3544 15.748 86.2664 15.66 86.1384 15.548ZM83.8344 16.58C83.7064 16.564 83.6104 16.564 83.5464 16.58C83.4824 16.58 83.4184 16.636 83.3544 16.748C83.3064 16.86 83.3064 16.948 83.3544 17.012C83.4024 17.06 83.4664 17.124 83.5464 17.204C83.6584 17.3 83.7384 17.388 83.7864 17.468C83.8344 17.532 83.9224 17.532 84.0504 17.468C84.1784 17.404 84.2344 17.332 84.2184 17.252C84.2024 17.156 84.1864 17.036 84.1704 16.892C84.1384 16.716 84.0264 16.612 83.8344 16.58ZM89.7864 16.724L89.5464 16.604L89.3784 16.772L89.4744 16.964H89.6904L89.7864 16.724ZM89.1864 17.324L88.9944 17.3V17.492L89.1384 17.684L89.2344 17.468L89.1864 17.324ZM96.1186 18.5C95.9426 18.5 95.7906 18.436 95.6626 18.308C95.5346 18.18 95.4706 18.028 95.4706 17.852V2.108C95.4706 1.932 95.5346 1.78 95.6626 1.652C95.7906 1.524 95.9426 1.46 96.1186 1.46H100.799C100.975 1.46 101.127 1.524 101.255 1.652C101.383 1.78 101.447 1.932 101.447 2.108V7.268C101.863 6.804 102.391 6.444 103.031 6.188C103.671 5.916 104.359 5.78 105.095 5.78C105.911 5.78 106.679 5.972 107.399 6.356C108.135 6.74 108.727 7.332 109.175 8.132C109.639 8.932 109.871 9.964 109.871 11.228V17.852C109.871 18.028 109.807 18.18 109.679 18.308C109.551 18.436 109.399 18.5 109.223 18.5H104.519C104.343 18.5 104.191 18.436 104.063 18.308C103.935 18.18 103.871 18.028 103.871 17.852V11.396C103.871 10.516 103.471 10.076 102.671 10.076C101.855 10.076 101.447 10.516 101.447 11.396V17.852C101.447 18.028 101.383 18.18 101.255 18.308C101.127 18.436 100.975 18.5 100.799 18.5H96.1186ZM100.295 3.044C100.151 2.964 100.031 2.932 99.9346 2.948C99.8546 2.964 99.7586 3.036 99.6466 3.164C99.5346 3.276 99.4706 3.372 99.4546 3.452C99.4386 3.532 99.4706 3.644 99.5506 3.788C99.6146 3.932 99.6866 4.004 99.7666 4.004C99.8466 4.004 99.9586 3.996 100.103 3.98C100.231 3.948 100.327 3.916 100.391 3.884C100.455 3.852 100.503 3.764 100.535 3.62C100.551 3.46 100.551 3.34 100.535 3.26C100.519 3.18 100.439 3.108 100.295 3.044ZM99.1666 3.812C99.1186 3.636 99.0306 3.54 98.9026 3.524C98.7746 3.508 98.6786 3.58 98.6146 3.74C98.5506 3.884 98.5666 4.004 98.6626 4.1C98.7266 4.148 98.7746 4.156 98.8066 4.124C98.8546 4.092 98.9106 4.06 98.9746 4.028C99.0386 3.996 99.0866 3.972 99.1186 3.956C99.1666 3.924 99.1826 3.876 99.1666 3.812ZM98.0146 5.612C97.8866 5.532 97.7826 5.524 97.7026 5.588C97.6386 5.636 97.5426 5.708 97.4146 5.804C97.3186 5.884 97.2386 5.956 97.1746 6.02C97.1266 6.084 97.1266 6.18 97.1746 6.308C97.2386 6.468 97.2946 6.596 97.3426 6.692C97.4066 6.772 97.5266 6.804 97.7026 6.788C97.8786 6.772 97.9826 6.724 98.0146 6.644C98.0626 6.548 98.1106 6.412 98.1586 6.236C98.2066 6.092 98.2226 5.98 98.2066 5.9C98.2066 5.804 98.1426 5.708 98.0146 5.612ZM99.2626 5.876L99.1666 5.684L98.9746 5.828L99.0706 5.996L99.2386 6.092L99.2626 5.876ZM96.4546 5.708L96.2866 5.78L96.2146 5.948L96.4306 6.068L96.5266 5.876L96.4546 5.708ZM100.535 6.452L100.295 6.356L100.151 6.548L100.271 6.716L100.463 6.668L100.535 6.452ZM97.1986 7.82C97.1346 7.708 97.0866 7.62 97.0546 7.556C97.0226 7.492 96.9426 7.468 96.8146 7.484C96.5746 7.532 96.4386 7.676 96.4066 7.916C96.3906 8.06 96.4146 8.148 96.4786 8.18C96.5426 8.212 96.6386 8.26 96.7666 8.324C96.8466 8.356 96.9106 8.364 96.9586 8.348C97.0066 8.316 97.0626 8.26 97.1266 8.18C97.2386 8.052 97.2626 7.932 97.1986 7.82ZM107.447 7.964C107.287 7.82 107.151 7.74 107.039 7.724C106.927 7.692 106.783 7.732 106.607 7.844C106.415 7.956 106.295 8.068 106.247 8.18C106.215 8.276 106.223 8.436 106.271 8.66C106.335 8.932 106.383 9.148 106.415 9.308C106.447 9.468 106.607 9.564 106.895 9.596C107.183 9.612 107.359 9.548 107.423 9.404C107.503 9.26 107.599 9.06 107.711 8.804C107.807 8.596 107.823 8.444 107.759 8.348C107.711 8.236 107.607 8.108 107.447 7.964ZM105.287 7.82L104.975 7.892L104.855 8.108L105.047 8.348L105.311 8.18L105.287 7.82ZM102.503 8.228C102.391 8.212 102.319 8.236 102.287 8.3C102.255 8.348 102.207 8.42 102.143 8.516C102.111 8.596 102.103 8.652 102.119 8.684C102.151 8.716 102.199 8.764 102.263 8.828C102.343 8.908 102.399 8.98 102.431 9.044C102.463 9.092 102.527 9.092 102.623 9.044C102.719 8.996 102.759 8.94 102.743 8.876C102.727 8.812 102.711 8.724 102.695 8.612C102.679 8.516 102.663 8.436 102.647 8.372C102.647 8.292 102.599 8.244 102.503 8.228ZM96.5026 8.756L96.2386 8.54L96.0466 8.756L96.1186 8.948L96.3106 8.972L96.5026 8.756ZM99.9346 9.092C99.7746 8.868 99.6226 8.78 99.4786 8.828C99.3346 8.86 99.1346 8.908 98.8786 8.972C98.6706 9.036 98.5266 9.116 98.4466 9.212C98.3826 9.292 98.3506 9.436 98.3506 9.644C98.3506 9.852 98.3746 10.012 98.4226 10.124C98.4866 10.22 98.6146 10.3 98.8066 10.364C99.0306 10.444 99.2066 10.484 99.3346 10.484C99.4626 10.468 99.5986 10.372 99.7426 10.196C99.9026 9.972 100.007 9.788 100.055 9.644C100.119 9.5 100.079 9.316 99.9346 9.092ZM105.623 10.268C105.607 10.108 105.559 10.004 105.479 9.956C105.415 9.892 105.303 9.844 105.143 9.812C105.015 9.764 104.919 9.764 104.855 9.812C104.791 9.86 104.719 9.948 104.639 10.076C104.527 10.268 104.535 10.444 104.663 10.604C104.807 10.78 104.983 10.828 105.191 10.748C105.335 10.684 105.447 10.628 105.527 10.58C105.607 10.532 105.639 10.428 105.623 10.268ZM100.823 10.076L100.631 10.028L100.607 10.268L100.799 10.292L100.919 10.196L100.823 10.076ZM107.711 10.364L107.519 10.316L107.423 10.508L107.543 10.748L107.735 10.58L107.711 10.364ZM108.719 11.444C108.447 11.268 108.239 11.26 108.095 11.42C107.967 11.58 107.783 11.764 107.543 11.972C107.287 12.18 107.063 12.34 106.871 12.452C106.695 12.564 106.671 12.772 106.799 13.076C106.943 13.396 107.111 13.572 107.303 13.604C107.511 13.636 107.791 13.636 108.143 13.604C108.463 13.572 108.687 13.508 108.815 13.412C108.943 13.316 109.047 13.108 109.127 12.788C109.207 12.452 109.231 12.188 109.199 11.996C109.183 11.804 109.023 11.62 108.719 11.444ZM106.031 11.924L105.839 12.068L105.791 12.38L106.103 12.332L106.319 12.116L106.031 11.924ZM99.5746 12.164C99.3826 12.004 99.2146 11.94 99.0706 11.972C98.9426 11.988 98.7746 12.06 98.5666 12.188C98.3746 12.3 98.2546 12.412 98.2066 12.524C98.1746 12.636 98.1826 12.804 98.2306 13.028C98.2946 13.284 98.3506 13.484 98.3986 13.628C98.4626 13.756 98.6226 13.836 98.8786 13.868C99.1506 13.884 99.3266 13.836 99.4066 13.724C99.4866 13.596 99.5746 13.412 99.6706 13.172C99.7826 12.932 99.8386 12.748 99.8386 12.62C99.8546 12.492 99.7666 12.34 99.5746 12.164ZM96.5026 12.884L96.2626 12.716L96.1186 12.908L96.1426 13.1L96.4066 13.172L96.5026 12.884ZM105.911 13.7L105.815 13.508L105.575 13.604L105.599 13.868H105.815L105.911 13.7ZM96.8626 14.012C96.8146 13.916 96.7666 13.852 96.7186 13.82C96.6866 13.772 96.6146 13.756 96.5026 13.772C96.3586 13.804 96.2386 13.828 96.1426 13.844C96.0626 13.844 96.0066 13.916 95.9746 14.06C95.9586 14.204 95.9906 14.3 96.0706 14.348C96.1506 14.38 96.2626 14.428 96.4066 14.492C96.5346 14.572 96.6386 14.636 96.7186 14.684C96.7986 14.716 96.8946 14.684 97.0066 14.588C97.1026 14.476 97.1186 14.388 97.0546 14.324C97.0066 14.244 96.9426 14.14 96.8626 14.012ZM108.575 14.948C108.479 14.868 108.399 14.844 108.335 14.876C108.271 14.892 108.183 14.94 108.071 15.02C107.959 15.1 107.863 15.164 107.783 15.212C107.719 15.26 107.711 15.348 107.759 15.476C107.791 15.62 107.847 15.708 107.927 15.74C108.007 15.756 108.119 15.764 108.263 15.764C108.407 15.764 108.511 15.756 108.575 15.74C108.639 15.708 108.695 15.628 108.743 15.5C108.823 15.276 108.767 15.092 108.575 14.948ZM100.439 15.116C100.311 15.004 100.199 14.956 100.103 14.972C100.007 14.988 99.8866 15.036 99.7426 15.116C99.5826 15.212 99.4626 15.3 99.3826 15.38C99.3186 15.444 99.3106 15.572 99.3586 15.764C99.4066 15.988 99.4546 16.164 99.5026 16.292C99.5666 16.42 99.7186 16.492 99.9586 16.508C100.183 16.524 100.319 16.468 100.367 16.34C100.415 16.212 100.479 16.036 100.559 15.812C100.623 15.652 100.647 15.532 100.631 15.452C100.631 15.356 100.567 15.244 100.439 15.116ZM106.391 15.62L106.151 15.596L106.055 15.788L106.199 15.98L106.367 15.836L106.391 15.62ZM97.6306 15.788C97.3426 15.676 97.1346 15.684 97.0066 15.812C96.8786 15.924 96.7186 16.1 96.5266 16.34C96.3346 16.58 96.1986 16.78 96.1186 16.94C96.0546 17.084 96.1026 17.284 96.2626 17.54C96.4386 17.796 96.6066 17.932 96.7666 17.948C96.9426 17.948 97.1826 17.9 97.4866 17.804C97.7426 17.74 97.8946 17.644 97.9426 17.516C98.0066 17.388 98.0466 17.188 98.0626 16.916C98.0786 16.612 98.0786 16.372 98.0626 16.196C98.0626 16.02 97.9186 15.884 97.6306 15.788ZM107.855 16.916C107.743 16.756 107.583 16.708 107.375 16.772C107.279 16.788 107.223 16.828 107.207 16.892C107.207 16.956 107.207 17.044 107.207 17.156C107.207 17.284 107.191 17.388 107.159 17.468C107.143 17.548 107.191 17.612 107.303 17.66C107.431 17.708 107.519 17.7 107.567 17.636C107.631 17.572 107.703 17.484 107.783 17.372C107.847 17.276 107.887 17.204 107.903 17.156C107.935 17.092 107.919 17.012 107.855 16.916ZM106.439 17.132H106.175V17.396L106.415 17.468L106.511 17.276L106.439 17.132ZM112.668 4.7C112.492 4.7 112.34 4.636 112.212 4.508C112.084 4.38 112.02 4.228 112.02 4.052V1.148C112.02 0.971999 112.084 0.819999 112.212 0.691999C112.34 0.563999 112.492 0.499999 112.668 0.499999H116.724C116.9 0.499999 117.052 0.563999 117.18 0.691999C117.308 0.819999 117.372 0.971999 117.372 1.148V4.052C117.372 4.228 117.308 4.38 117.18 4.508C117.052 4.636 116.9 4.7 116.724 4.7H112.668ZM113.868 1.964L113.676 2.084L113.724 2.348L114.036 2.396L114.132 2.084L113.868 1.964ZM114.78 2.588L114.612 2.516L114.372 2.612L114.516 2.876L114.732 2.756L114.78 2.588ZM113.292 2.9L113.004 2.972V3.188L113.172 3.332L113.388 3.188L113.292 2.9ZM115.812 3.02C115.716 3.02 115.644 3.02 115.596 3.02C115.548 3.02 115.508 3.06 115.476 3.14C115.444 3.22 115.444 3.284 115.476 3.332C115.508 3.364 115.556 3.404 115.62 3.452C115.684 3.516 115.74 3.572 115.788 3.62C115.836 3.652 115.9 3.644 115.98 3.596C116.124 3.5 116.18 3.364 116.148 3.188C116.116 3.092 116.076 3.044 116.028 3.044C115.98 3.044 115.908 3.036 115.812 3.02ZM112.548 18.5C112.372 18.5 112.22 18.436 112.092 18.308C111.964 18.18 111.9 18.028 111.9 17.852V6.668C111.9 6.492 111.964 6.34 112.092 6.212C112.22 6.084 112.372 6.02 112.548 6.02H116.844C117.02 6.02 117.172 6.084 117.3 6.212C117.428 6.34 117.492 6.492 117.492 6.668V17.852C117.492 18.028 117.428 18.18 117.3 18.308C117.172 18.436 117.02 18.5 116.844 18.5H112.548ZM114.396 7.34L114.156 7.292L114.06 7.556L114.3 7.772L114.564 7.58L114.396 7.34ZM116.604 7.916C116.572 7.708 116.468 7.588 116.292 7.556C116.196 7.54 116.132 7.556 116.1 7.604C116.068 7.652 116.028 7.724 115.98 7.82C115.9 7.964 115.9 8.084 115.98 8.18C116.108 8.308 116.236 8.34 116.364 8.276C116.46 8.228 116.524 8.188 116.556 8.156C116.604 8.108 116.62 8.028 116.604 7.916ZM113.46 8.132L113.292 8.084L113.076 8.204L113.244 8.42L113.484 8.372L113.46 8.132ZM115.596 8.66C115.436 8.5 115.292 8.444 115.164 8.492C115.052 8.54 114.9 8.604 114.708 8.684C114.532 8.764 114.404 8.844 114.324 8.924C114.244 8.988 114.212 9.116 114.228 9.308C114.26 9.532 114.308 9.692 114.372 9.788C114.436 9.868 114.58 9.924 114.804 9.956C115.028 10.004 115.196 10.012 115.308 9.98C115.42 9.948 115.532 9.836 115.644 9.644C115.772 9.436 115.836 9.268 115.836 9.14C115.836 8.996 115.756 8.836 115.596 8.66ZM116.772 9.86C116.708 9.812 116.66 9.804 116.628 9.836C116.596 9.868 116.556 9.908 116.508 9.956C116.444 10.004 116.396 10.044 116.364 10.076C116.332 10.108 116.332 10.156 116.364 10.22C116.444 10.38 116.548 10.452 116.676 10.436C116.804 10.42 116.884 10.324 116.916 10.148C116.932 10.02 116.884 9.924 116.772 9.86ZM113.484 10.316C113.452 10.108 113.348 9.988 113.172 9.956C113.06 9.94 112.98 9.956 112.932 10.004C112.9 10.036 112.86 10.1 112.812 10.196C112.764 10.276 112.756 10.34 112.788 10.388C112.82 10.42 112.868 10.468 112.932 10.532C112.98 10.596 113.02 10.644 113.052 10.676C113.1 10.692 113.156 10.684 113.22 10.652C113.316 10.604 113.388 10.564 113.436 10.532C113.484 10.484 113.5 10.412 113.484 10.316ZM115.644 10.748L115.476 10.628L115.284 10.676L115.308 10.916L115.548 10.964L115.644 10.748ZM115.044 11.828C114.98 11.732 114.916 11.692 114.852 11.708C114.788 11.724 114.7 11.756 114.588 11.804C114.46 11.836 114.356 11.86 114.276 11.876C114.212 11.892 114.18 11.964 114.18 12.092C114.18 12.236 114.204 12.34 114.252 12.404C114.3 12.452 114.396 12.5 114.54 12.548C114.652 12.58 114.724 12.572 114.756 12.524C114.804 12.46 114.868 12.38 114.948 12.284C115.012 12.188 115.06 12.116 115.092 12.068C115.14 12.004 115.124 11.924 115.044 11.828ZM116.94 12.164C116.876 12.036 116.804 11.964 116.724 11.948C116.66 11.932 116.564 11.932 116.436 11.948C116.308 11.964 116.22 11.996 116.172 12.044C116.124 12.092 116.084 12.18 116.052 12.308C116.036 12.436 116.044 12.532 116.076 12.596C116.124 12.644 116.204 12.7 116.316 12.764C116.492 12.86 116.66 12.836 116.82 12.692C116.916 12.596 116.972 12.516 116.988 12.452C117.02 12.372 117.004 12.276 116.94 12.164ZM112.788 12.452L112.572 12.284L112.38 12.548L112.572 12.74L112.788 12.668V12.452ZM114.516 13.292C114.452 13.132 114.364 13.06 114.252 13.076C114.076 13.092 113.972 13.172 113.94 13.316C113.924 13.444 113.988 13.548 114.132 13.628C114.26 13.708 114.38 13.708 114.492 13.628C114.572 13.548 114.58 13.436 114.516 13.292ZM112.956 13.676C112.876 13.612 112.812 13.564 112.764 13.532C112.716 13.484 112.644 13.492 112.548 13.556C112.468 13.62 112.436 13.684 112.452 13.748C112.468 13.796 112.5 13.876 112.548 13.988C112.58 14.084 112.604 14.156 112.62 14.204C112.652 14.252 112.716 14.276 112.812 14.276C112.956 14.276 113.06 14.268 113.124 14.252C113.204 14.236 113.26 14.164 113.292 14.036C113.324 13.924 113.3 13.852 113.22 13.82C113.156 13.788 113.068 13.74 112.956 13.676ZM116.508 13.988C116.46 13.812 116.396 13.692 116.316 13.628C116.236 13.564 116.1 13.524 115.908 13.508C115.732 13.492 115.612 13.524 115.548 13.604C115.484 13.668 115.42 13.78 115.356 13.94C115.276 14.132 115.228 14.284 115.212 14.396C115.212 14.492 115.284 14.596 115.428 14.708C115.588 14.852 115.724 14.924 115.836 14.924C115.948 14.924 116.092 14.868 116.268 14.756C116.444 14.644 116.54 14.54 116.556 14.444C116.572 14.332 116.556 14.18 116.508 13.988ZM113.988 14.708L113.724 14.684V14.924L113.868 15.116L114.012 14.924L113.988 14.708ZM112.692 14.804L112.548 14.996V15.188L112.764 15.26L112.908 15.02L112.692 14.804ZM116.028 15.644L115.86 15.404L115.644 15.62L115.716 15.884L115.98 15.86L116.028 15.644ZM114.732 15.86C114.636 15.7 114.548 15.588 114.468 15.524C114.388 15.46 114.252 15.452 114.06 15.5C113.884 15.532 113.78 15.596 113.748 15.692C113.716 15.788 113.692 15.932 113.676 16.124C113.66 16.284 113.676 16.396 113.724 16.46C113.788 16.524 113.892 16.58 114.036 16.628C114.196 16.708 114.324 16.764 114.42 16.796C114.516 16.828 114.628 16.772 114.756 16.628C114.884 16.484 114.94 16.364 114.924 16.268C114.908 16.156 114.844 16.02 114.732 15.86ZM116.916 15.596L116.772 15.5L116.556 15.62L116.7 15.788L116.916 15.836V15.596ZM115.884 16.316C115.772 16.3 115.692 16.324 115.644 16.388C115.612 16.452 115.572 16.532 115.524 16.628C115.476 16.708 115.46 16.772 115.476 16.82C115.508 16.868 115.556 16.924 115.62 16.988C115.7 17.052 115.756 17.108 115.788 17.156C115.836 17.204 115.9 17.204 115.98 17.156C116.156 17.076 116.228 16.94 116.196 16.748C116.18 16.62 116.156 16.524 116.124 16.46C116.092 16.396 116.012 16.348 115.884 16.316ZM121.501 23.06C121.325 23.06 121.173 22.996 121.045 22.868C120.917 22.74 120.853 22.588 120.853 22.412V6.668C120.853 6.492 120.917 6.34 121.045 6.212C121.173 6.084 121.325 6.02 121.501 6.02H125.581C125.757 6.02 125.909 6.084 126.037 6.212C126.165 6.34 126.229 6.492 126.229 6.668V7.388C126.597 6.924 127.069 6.54 127.645 6.236C128.237 5.932 128.949 5.78 129.781 5.78C130.709 5.78 131.541 5.964 132.277 6.332C133.029 6.7 133.637 7.292 134.101 8.108C134.565 8.908 134.821 9.98 134.869 11.324C134.885 11.676 134.893 11.988 134.893 12.26C134.893 12.532 134.885 12.852 134.869 13.22C134.821 14.468 134.565 15.5 134.101 16.316C133.653 17.132 133.053 17.74 132.301 18.14C131.549 18.54 130.709 18.74 129.781 18.74C129.109 18.74 128.501 18.628 127.957 18.404C127.413 18.18 126.957 17.812 126.589 17.3V22.412C126.589 22.588 126.525 22.74 126.397 22.868C126.269 22.996 126.117 23.06 125.941 23.06H121.501ZM131.725 6.908C131.661 6.828 131.605 6.764 131.557 6.716C131.509 6.668 131.437 6.66 131.341 6.692C131.245 6.74 131.197 6.796 131.197 6.86C131.197 6.924 131.205 7.012 131.221 7.124C131.237 7.252 131.317 7.332 131.461 7.364C131.541 7.38 131.605 7.396 131.653 7.412C131.717 7.412 131.773 7.372 131.821 7.292C131.869 7.212 131.877 7.148 131.845 7.1C131.829 7.052 131.789 6.988 131.725 6.908ZM125.293 7.004C125.101 6.988 124.981 7.036 124.933 7.148C124.901 7.26 124.845 7.404 124.765 7.58C124.685 7.74 124.613 7.876 124.549 7.988C124.485 8.084 124.525 8.196 124.669 8.324C124.829 8.468 124.965 8.54 125.077 8.54C125.189 8.524 125.341 8.46 125.533 8.348C125.693 8.268 125.781 8.18 125.797 8.084C125.829 7.988 125.829 7.844 125.797 7.652C125.749 7.46 125.701 7.316 125.653 7.22C125.621 7.108 125.501 7.036 125.293 7.004ZM123.181 7.052C123.037 7.004 122.925 6.996 122.845 7.028C122.765 7.06 122.685 7.14 122.605 7.268C122.509 7.396 122.469 7.5 122.485 7.58C122.501 7.644 122.549 7.74 122.629 7.868C122.725 7.996 122.813 8.076 122.893 8.108C122.973 8.14 123.085 8.132 123.229 8.084C123.405 8.02 123.525 7.956 123.589 7.892C123.669 7.828 123.709 7.708 123.709 7.532C123.709 7.356 123.661 7.244 123.565 7.196C123.485 7.148 123.357 7.1 123.181 7.052ZM121.813 7.244L121.573 7.148L121.429 7.436L121.669 7.604L121.933 7.508L121.813 7.244ZM130.789 7.268C130.693 7.188 130.613 7.18 130.549 7.244C130.501 7.308 130.421 7.372 130.309 7.436C130.229 7.484 130.165 7.524 130.117 7.556C130.069 7.588 130.053 7.652 130.069 7.748C130.101 7.844 130.141 7.908 130.189 7.94C130.237 7.956 130.317 7.972 130.429 7.988C130.541 8.004 130.629 8.012 130.693 8.012C130.757 7.996 130.813 7.932 130.861 7.82C130.909 7.692 130.933 7.596 130.933 7.532C130.933 7.452 130.885 7.364 130.789 7.268ZM128.197 7.7C128.133 7.604 128.077 7.54 128.029 7.508C127.981 7.46 127.901 7.444 127.789 7.46C127.677 7.492 127.613 7.54 127.597 7.604C127.597 7.668 127.589 7.756 127.573 7.868C127.557 7.964 127.557 8.036 127.573 8.084C127.589 8.132 127.645 8.18 127.741 8.228C127.853 8.276 127.941 8.308 128.005 8.324C128.069 8.324 128.141 8.284 128.221 8.204C128.301 8.108 128.333 8.028 128.317 7.964C128.301 7.9 128.261 7.812 128.197 7.7ZM133.189 7.916C133.077 7.868 132.989 7.844 132.925 7.844C132.877 7.828 132.813 7.86 132.733 7.94C132.669 8.036 132.661 8.108 132.709 8.156C132.757 8.204 132.813 8.268 132.877 8.348C132.957 8.46 133.005 8.556 133.021 8.636C133.053 8.7 133.125 8.716 133.237 8.684C133.365 8.636 133.429 8.58 133.429 8.516C133.445 8.436 133.453 8.332 133.453 8.204C133.453 8.108 133.429 8.044 133.381 8.012C133.349 7.98 133.285 7.948 133.189 7.916ZM132.589 9.62C132.237 9.284 131.933 9.148 131.677 9.212C131.437 9.26 131.109 9.404 130.693 9.644C130.341 9.836 130.133 10.036 130.069 10.244C130.005 10.452 130.013 10.748 130.093 11.132C130.157 11.5 130.269 11.74 130.429 11.852C130.605 11.964 130.877 12.044 131.245 12.092C131.677 12.14 132.013 12.172 132.253 12.188C132.509 12.188 132.725 11.996 132.901 11.612C133.125 11.148 133.221 10.788 133.189 10.532C133.157 10.26 132.957 9.956 132.589 9.62ZM124.549 9.476C124.325 9.428 124.157 9.436 124.045 9.5C123.949 9.564 123.845 9.692 123.733 9.884C123.621 10.108 123.557 10.284 123.541 10.412C123.525 10.54 123.605 10.692 123.781 10.868C123.941 11.044 124.085 11.148 124.213 11.18C124.357 11.196 124.541 11.156 124.765 11.06C124.973 10.964 125.077 10.852 125.077 10.724C125.077 10.596 125.061 10.42 125.029 10.196C124.997 9.972 124.965 9.804 124.933 9.692C124.901 9.58 124.773 9.508 124.549 9.476ZM127.789 14.444C128.237 14.444 128.533 14.324 128.677 14.084C128.837 13.828 128.941 13.484 128.989 13.052C129.037 12.524 129.037 11.996 128.989 11.468C128.941 11.036 128.837 10.7 128.677 10.46C128.533 10.204 128.237 10.076 127.789 10.076C127.341 10.076 127.037 10.204 126.877 10.46C126.717 10.7 126.621 11.036 126.589 11.468C126.573 11.82 126.565 12.116 126.565 12.356C126.565 12.58 126.573 12.876 126.589 13.244C126.621 13.628 126.725 13.924 126.901 14.132C127.093 14.34 127.389 14.444 127.789 14.444ZM122.653 11.756C122.637 11.628 122.613 11.532 122.581 11.468C122.565 11.388 122.493 11.332 122.365 11.3C122.205 11.268 122.069 11.252 121.957 11.252C121.861 11.236 121.773 11.308 121.693 11.468C121.597 11.612 121.581 11.724 121.645 11.804C121.725 11.884 121.821 11.988 121.933 12.116C122.029 12.228 122.109 12.316 122.173 12.38C122.253 12.428 122.365 12.42 122.509 12.356C122.653 12.292 122.717 12.22 122.701 12.14C122.685 12.044 122.669 11.916 122.653 11.756ZM125.269 11.516C125.109 11.468 124.997 11.484 124.933 11.564C124.869 11.644 124.789 11.756 124.693 11.9C124.597 12.06 124.517 12.188 124.453 12.284C124.405 12.38 124.445 12.5 124.573 12.644C124.685 12.788 124.789 12.828 124.885 12.764C124.981 12.7 125.117 12.636 125.293 12.572C125.421 12.508 125.501 12.452 125.533 12.404C125.581 12.34 125.597 12.244 125.581 12.116C125.565 11.956 125.549 11.828 125.533 11.732C125.533 11.62 125.445 11.548 125.269 11.516ZM123.733 13.268C123.509 13.22 123.349 13.228 123.253 13.292C123.173 13.356 123.077 13.484 122.965 13.676C122.853 13.836 122.797 13.972 122.797 14.084C122.813 14.18 122.885 14.3 123.013 14.444C123.157 14.62 123.277 14.764 123.373 14.876C123.469 14.972 123.629 14.972 123.853 14.876C124.077 14.796 124.213 14.692 124.261 14.564C124.309 14.436 124.325 14.244 124.309 13.988C124.293 13.764 124.245 13.604 124.165 13.508C124.101 13.412 123.957 13.332 123.733 13.268ZM121.933 13.34L121.597 13.316L121.573 13.676L121.885 13.82L122.077 13.556L121.933 13.34ZM133.549 14.036C133.517 13.924 133.485 13.844 133.453 13.796C133.421 13.748 133.357 13.724 133.261 13.724C133.165 13.724 133.101 13.748 133.069 13.796C133.053 13.844 133.029 13.916 132.997 14.012C132.949 14.124 132.981 14.22 133.093 14.3C133.157 14.348 133.205 14.388 133.237 14.42C133.285 14.436 133.341 14.42 133.405 14.372C133.533 14.292 133.581 14.18 133.549 14.036ZM130.549 14.468L130.261 14.324L130.213 14.66L130.381 14.948L130.645 14.708L130.549 14.468ZM127.405 15.764C127.373 15.476 127.285 15.3 127.141 15.236C126.997 15.172 126.789 15.108 126.517 15.044C126.229 14.98 126.005 14.948 125.845 14.948C125.701 14.932 125.549 15.052 125.389 15.308C125.261 15.532 125.261 15.7 125.389 15.812C125.517 15.924 125.669 16.084 125.845 16.292C126.021 16.5 126.149 16.684 126.229 16.844C126.325 17.004 126.509 17.028 126.781 16.916C127.085 16.788 127.269 16.652 127.333 16.508C127.413 16.348 127.437 16.1 127.405 15.764ZM129.997 15.668C129.773 15.428 129.589 15.252 129.445 15.14C129.301 15.012 129.085 15.02 128.797 15.164C128.509 15.308 128.389 15.476 128.437 15.668C128.485 15.86 128.533 16.108 128.581 16.412C128.629 16.7 128.669 16.924 128.701 17.084C128.749 17.244 128.917 17.34 129.205 17.372C129.541 17.436 129.789 17.436 129.949 17.372C130.109 17.308 130.269 17.124 130.429 16.82C130.557 16.548 130.573 16.34 130.477 16.196C130.381 16.052 130.221 15.876 129.997 15.668ZM132.397 15.692C132.253 15.548 132.133 15.444 132.037 15.38C131.941 15.316 131.813 15.34 131.653 15.452C131.477 15.548 131.397 15.652 131.413 15.764C131.429 15.876 131.461 16.028 131.509 16.22C131.541 16.364 131.589 16.452 131.653 16.484C131.733 16.5 131.845 16.516 131.989 16.532C132.149 16.548 132.277 16.556 132.373 16.556C132.469 16.556 132.549 16.484 132.613 16.34C132.677 16.18 132.685 16.06 132.637 15.98C132.605 15.9 132.525 15.804 132.397 15.692ZM123.589 16.124C123.573 16.012 123.533 15.94 123.469 15.908C123.421 15.86 123.341 15.82 123.229 15.788C123.053 15.756 122.917 15.82 122.821 15.98C122.741 16.14 122.757 16.284 122.869 16.412C122.981 16.54 123.117 16.572 123.277 16.508C123.389 16.46 123.469 16.42 123.517 16.388C123.581 16.34 123.605 16.252 123.589 16.124ZM131.437 17.06C131.293 17.044 131.189 17.052 131.125 17.084C131.061 17.1 130.997 17.164 130.933 17.276C130.885 17.388 130.885 17.476 130.933 17.54C130.981 17.588 131.045 17.652 131.125 17.732C131.205 17.812 131.269 17.868 131.317 17.9C131.381 17.916 131.461 17.9 131.557 17.852C131.669 17.788 131.741 17.732 131.773 17.684C131.821 17.636 131.837 17.548 131.821 17.42C131.789 17.292 131.749 17.204 131.701 17.156C131.653 17.108 131.565 17.076 131.437 17.06ZM125.317 17.444C125.093 17.332 124.917 17.308 124.789 17.372C124.677 17.42 124.533 17.532 124.357 17.708C124.181 17.868 124.077 18.012 124.045 18.14C124.029 18.252 124.069 18.404 124.165 18.596C124.277 18.836 124.381 19.004 124.477 19.1C124.573 19.212 124.757 19.252 125.029 19.22C125.269 19.172 125.421 19.084 125.485 18.956C125.549 18.828 125.605 18.644 125.653 18.404C125.685 18.148 125.693 17.956 125.677 17.828C125.661 17.7 125.541 17.572 125.317 17.444ZM122.293 20.084L122.053 19.94L121.837 20.084L121.933 20.276L122.125 20.3L122.293 20.084ZM123.541 20.036C123.429 19.94 123.309 19.94 123.181 20.036C123.085 20.1 123.013 20.156 122.965 20.204C122.933 20.252 122.933 20.324 122.965 20.42C122.997 20.516 123.037 20.564 123.085 20.564C123.149 20.564 123.237 20.564 123.349 20.564C123.461 20.564 123.549 20.564 123.613 20.564C123.677 20.58 123.725 20.54 123.757 20.444C123.789 20.332 123.781 20.252 123.733 20.204C123.701 20.156 123.637 20.1 123.541 20.036ZM122.461 21.26L122.173 21.092L121.981 21.332L122.125 21.524L122.413 21.62L122.461 21.26ZM123.781 21.572C123.685 21.476 123.597 21.444 123.517 21.476C123.453 21.508 123.365 21.556 123.253 21.62C123.141 21.684 123.053 21.732 122.989 21.764C122.925 21.812 122.901 21.9 122.917 22.028C122.949 22.156 122.997 22.228 123.061 22.244C123.141 22.26 123.245 22.276 123.373 22.292C123.485 22.308 123.565 22.308 123.613 22.292C123.677 22.276 123.733 22.212 123.781 22.1C123.845 21.988 123.885 21.892 123.901 21.812C123.917 21.748 123.877 21.668 123.781 21.572ZM125.413 21.884L125.221 21.932L125.149 22.076L125.293 22.196L125.413 22.076V21.884Z" fill="black"/>
</svg>
